<mxfile host="app.diagrams.net" modified="2024-06-02T22:22:43.427Z" agent="Mozilla/5.0 (Windows NT 10.0; Win64; x64) AppleWebKit/537.36 (KHTML, like Gecko) Chrome/125.0.0.0 Safari/537.36" etag="7nHIZjClUbQFhpYo6aje" version="24.4.13" type="github">
  <diagram name="Page-1" id="NBOmxJocGqKw7cyFjIDA">
    <mxGraphModel dx="1050" dy="522" grid="1" gridSize="10" guides="1" tooltips="1" connect="1" arrows="1" fold="1" page="1" pageScale="1" pageWidth="850" pageHeight="1100" math="0" shadow="0">
      <root>
        <mxCell id="0" />
        <mxCell id="1" parent="0" />
        <mxCell id="kvOC6Rou-JyfdBj1kbYH-2" value="MPC Algorithm" style="swimlane;whiteSpace=wrap;html=1;" vertex="1" parent="1">
          <mxGeometry x="130" y="120" width="400" height="370" as="geometry" />
        </mxCell>
        <mxCell id="kvOC6Rou-JyfdBj1kbYH-1" value="" style="shape=image;verticalLabelPosition=bottom;labelBackgroundColor=default;verticalAlign=top;aspect=fixed;imageAspect=0;image=data:image/png,iVBORw0KGgoAAAANSUhEUgAAA+gAAAIrCAYAAAB8qLNKAAAABmJLR0QA/wD/AP+gvaeTAAAAB3RJTUUH2QscEC4GargxGAAAIABJREFUeJzs3Xl8XFX9//HXmUmT7iltgQKlULBQaEtZylJAdkTgyw5VVkFRBEVFRdoUv0YFCvzwq4LiCiICSpoCKoIgtCD7Tpu2lLVQ9i50X7LN+f3xuZe5mcxMZrLMZJL38/GYZpa7fO7MbTKfe875HEfpGw7cmOX1ZmBVcHsPmAMszGG7RwBfC+4/C1yXZ1xbAecBxwKjgc2BlcDHwCPA34An0qw3FvhJnvuKugO4pwPrixTKGcCJea6zBPh+5PFPsP8zy4GLctzGdcColG3tCUzNM5aoPwIPdnJMoXB72WwC1gAfAo9jv1uaMiyby/bSuQf7/SIiIiIiktEowOd5+zswtI3t/juy/HpgSB4xfR1Ym0McdwGVKese2I7jid46kmSIFNIM8j+/56Vs47Hg+Xfy2O+8NNs6th2xRG8XdkFMqdvL57YA2CPDvtqzPY99XiIiIiLShcqKHUAnWwTUpTznsGR8KLArUA4cj7V2TQYa02xnW+BIIAEsA7YEvgT8MocYvoC16Dus1f5vQVwfY8n49sApwBjgJKxl/QigPlh/OTAzw7YPxFrmNwD/yrDMohxiFOlu7iH9/8VUS7po/x+S+f/doVhPndUkW8lTvdkVQaVYBtyc4bV+2MXK/YEtsN91/wL2wo4tnWzHk07q71YRERERkVaiLehttfBsAzwXWT5T99PLg9dfAn4W3F+IJd3ZlAPvkmw92yrLcrdE4vhahuVS3RvZtkipi7agp/YkyVVnt1Zn20e+y3d2C3ou+++LdUMP39f/18HtiYiIiEgBxYodQIG9D0whOTbzzDTLOODLwf3ZwJ3B/V2AQ9rY/t7AyOD+VDK3XDVg3eCXBo/Pb2O7IiK52IT9Pvk4ePyFIsYiIiIiInnqbQk6wGJgbnA/XaGkQ7GibmBjxJ8F3goef72NbW+dsp9sNgEPBPe3o+3WeRGRXGzAegqBXTCsKGIsIiIiIpKH3pigg7Vgg3U1TxW2ni8Bngru/y34eSIwIst234vcPzWHOL6GdUndEutyKiLSGYYHPxtJ1rcQERERkW6uNyboFcD44P4bKa9VAicH92/DisQB3Br8LCeZwKfzTGSb3wVqgQOAeIblN6EvzyLSufYH9g3up5vKUURERES6qZ5Wxb0tDrgCGBQ8vjfl9TOwasgeK+IWehV4EvviewFwNcnkPSoBnAU8DAzAqrWfAnwC/Cd4/lHgtQ4fiUjPsjuwro1lFmP/lyS9UVgvn2rsd50Hrsyy/EBsBolcrAKe70hwIiIiItK2npagb0/6L5wjsKnTjsOmVgMropQ6bVrYOv4U8HrKa7dgCfoo4BhaJ/ehZ4BJwG+Bg4PnhmLFmsKCTe8Cs4DfA69kPhyRXuORHJY5E6tQ3lvtSuYLFENoWceiGfgOdlEwk9HYhcNcPA58NsdlRURERKQXi06zluttKZZsR02IvP7VNPsZDKwPXs80B3mqCcBPsKS9KU0cjcBVZO4Cn0rTrElPEp1mLZfbGWm20ZumWcvl9jFwEzAuh/jyuT2Wx7GIiIiISDv1tBb0bNYBLwP3Yy3Xy1Ne/0rwcyPJqdWi1mBV3c8CPo+11r/dxj7rgtv/Yq3ohwOfA47EKreXAdOw5P+beRyLSE+zO7C2jWWWpnku3VCTnmoJ8P3I4wHAjlixyS2wnjlnY8NocrEQODDHZZvaXkREREREpGUL+s+BzdLc0lVrjyrHEvZ8WpRmdCBmh40VXRpsK4G1trdFLejSk0Rb0CvbuY17SLYc5ypsrX6qrQUD+bag/yNY/sM8YloQrJOuqFtb+98CmE/yd8m32thXvscjIiIiIgXS06q4bwJWprk1ZFsJOAEYlue+vkzLxL8vcCxwLskq8Zl4LLE4JXjsgOPz3L+IWPEySBZ+zEU4BdnKTo4lFG43n5g2C362pwjeUuBQ7IKAA35B8neLiIiIiJSQnpagt9d5wc/lwBis22im23XBslvQ8ktwAku6/xTZXlsew7rOg/UEEJH8hENV+gEjc1h+EFY0EvJr4c5HGNOAyL6yGQxsFdz/qJ37XIZdNPRYkv5H9DtFREREpOQoQbcv9UcF9+/E5jF/K8vt1yTHvX49sp0GktOnfZG2u9WDJQsDgvtL2he+SK8WLV52WA7LH0my2vnTnR8O0LKb+udyWD66TK7d7tP5N/Cb4P4QrNaGiIiIiEhBRcegt2dc+OWR9ffLcZ0HI+tEqyVfHHn+VtouwvfLyPJ75bBfjUEvrFzqAkj7dcYY9CFAfbCNt4HNsyzbF3gpWLYZK/SYi3zHbG+GXbDz2EW9bDH1IzkmvhkrHtmR/Q/E3ofwfT2rg9sTEREREclLRxJ0B7wZrPtaG8tGfTGyzxsiz/cn+WXbY4WfvkTLL+jl2Pzo90SWuyfH/SpBL6w5pE+YpHN0RoIOLS90vYPVgdgs8nolNhzl5chyf8hj++1JaG+I7OvtIKYhaWKaG1nud520/6Mj21xGcsx96vZexy4M5nMTEREREcmqIwn6IZF1/zeP9SqAFcF6q7BWq9BI4NXIdsPbOuzLcnPK849hiX0ulKAXzmhsKMP0YgfSg3VWgt4PeJjW/+fWAqvTPH8Xuf+fg/Yl6P2B2XnENDM4js7a/+2Rbd+WYXvtuYmIiIhICRiIzfNdDB1J0P9CcmqiHfJcN9pC9tWU1yqwxG4xmb/ovgN8l/zmoleCXjg/xN7rV4sdSA/WWQk62P+j72NzgWf6P/dhsEy+tTfa2yU8jOn9LDF9gP0ecBm20d79b0HyIqInWWcjur1SStBHkVtdDxEREZGSlu1LYS5iWNfNK4ApwOMdDagdykhWK15FftMUbQv0wRL0t/Pc70DsSzBYq9iyDMuNBXbGupkOxOZrfpVkd9t8jMBa5ppQUbmu5LAhD58JHk+m6wqK9WZDSXb7fptk8cWOcNg0h9sDW2Pjzldiw01eauc+wu00AO+1Y/0YVs9gO6xae74xtXf/W5Ds3bMOm44tur32eKud63XUhdiFjG8D9xUpBhEREZFubT/gRZItKwcWNxyRTrM/LVsNbyxuOCK93oUk/z/eD+xa3HBEREREuo+RwB1Yq080iVGCLj3FA7Q8tzfRssCXiBRWNEH3QCPwf+j/pYiIiPRi/bBx1WtJPzZRCbr0BBXARlqf32cXMyiRXi41QY9Wqb+I/Gp5iIiIiJS8U7HCZNmKBylBl57gNNKf3xr3KlI8mRL08PYiNiuHiIiISI+2BzYXdC7VfZWgS0/wD9Kf3w20nM9eRAqnrQQ9vN2FFQgUERER6VGGA7+l9ZzdStClJ9sCS8QzneMXFy80kV4t1wTdAxuwmUUGpt2SiIiISAkpB76HTQGU7/y4StCl1H2H7Of4c8ULTaRXyydBD28fAGfS8elERURERIri88BC8v8SpARdeorotIGZbpreSaTw2pOgh7ensGlBRURERLq9MmAs8DvgoA5u61Bgqw5HJD1VI3BPsYPIYjxWc6Et5wBTuziWztAfOLbYQYh0kj07sO5+WJL+V6yH2IedEpGIiIhIF3BAPda1XaQrraZ7z1l8LXBpDsu9B2wHJLo2nA4bhc28ICJJ64CfAP+v2IGIiIiIpBPDuvWK9GZxbKxqLkYCh3VhLCLSdf4D3F3sIERERESyccDptD3PucagS091FPmd67cWJ0yRXqsjY9A9sAD7fy4iIiJSMvpjU9NsQAm69C63kd+5vg5N4SRSSO1N0D8BLsLqrYiIiIiUpFHAHShBl95hELCe/M/3c4oRrEgvlW+C3gj8GhhejGBFREREusIh5DbtlBJ0KWXn0b6WuYeKEaxIL5VPgj4bTYcoIiIiPVQM+DKwDCXo0jPNoX0JejOwbRHiFemNcknQXwdOKlaAIiIiIoU0BLgOm5JNCbr0FNthiXZ7EnQPTCt8yCK9UrYEfS1QhaYLFRERkV7oM8D9KEGXnmE67U/OPfBK4UMW6ZXSJejNwE3AVkWMS0RERKRb+Dw2bY0SdCllr9KxBN0D+xY8apHeJzVBfwrYr6gRiYiIiHQzZcB3gZUoQZfSsx8dT8498KtCBy7SC4UJ+vvA6YArbjgiIiIi3ddwbDqbycUORCQPv6ZzEvTlaOyrSFc7F7gCGFjkOEREREREpJOVAyvonATdAycWNnwRERERERGRnuFkOi8598DdhQ1fREREREREpGf4O52boNcDwwp6BCIiIiIiIiIlbnOggc5N0D3wjUIehIiIiIiIiEipu5jOT8498HQhD0JERERERESk1D1H1yToHhhbwOMQEREREZEeJlbsAEQKaFdgUhdu/+wu3LaIiIiIiIhIj3E1Xdd67oF30EUvERERERERkaxiwLt0bYLugUMLdUAiIiIiIiIipegIuj4598AtBToeERERERERkZJ0K4VJ0NcAAwp0TCIiIiIiIiIlZSCwjsIk6B44qzCHJSIiIiIiPYkKWklvcDKFbdVWNXcRERERERGRNB6icK3nHmgGRhbkyERERERERERKxLZYwlzIBN0DlxXi4EREREREpOdQF3fp6c6iOOf5OUXYp4iIiIiIiEi3tZDCt56Ht0kFOD4REREREekh1IIuPdnewC5F3L9a0UVERERERESAX1G81nMPLAX6dPlRioiIiIiIiHRj5cByipuge+D4rj5QERERERHpGdTFXXqqY4BhxQ4CdXMXERERERGRXu5uit967oFNwNAuPlYRERERERGRbmkYUE/xk/Pw9vWuPVwREREREekJyoodgEgX+CI2Br0tzcBrwEvAXOAdYAnWLT01qd4HGAJsC+wM7AHsSW7d6M8BfptL4CIiIiIiIiI9ydNkbs1eAfwB+AKZu57PSLNeZZrlHLA7cCnwXyCRZb9jOn5YIiIiIiIiIqVjLK2T42bgLuAEcpv2LNcEPdX2wA+B99Ks/9M8jkFERERERESk5F1JMineCNwIfCbPbbQ3QQ+VA+cCr0TWX4y1uIuIiIiIiIj0eDFsHHkCuAMY1c7tdDRBD5UBFwHLgm0c3M54RERERERERErKoVir9f4d3E5nJeihIcAtwE0djEtERERERHowVXGXnmQjVll9Y7EDSbEK6/J+ENbN3Rc1GhERERER6ZaUoEtP8nSxA2jDf4sdgIiIiIiIdF+xYgcgIiIiIiIiIkrQRURERERERLoFJegiIiIiIiIi3YASdBEREREREZFuQAm6iIiIiIiISDegKu4iIiLSY3iIvQI7NkE8Dm+Ng4ZixyQiIpIrJegiIiIFtgCGNsEeDlwFvLwzLC92TKXueaisgMvmw1eALRyQgNV1cHscrtgVPix2jCK5ehl22rgz36gfym6xZlb3/Yg79l5CrYNEsWMTka7lih2ASDc0A5ia8twQYHURYhGRHmQe7ODsd8zJJC+SJ4B7mmHa7vBa8aIrXXNhZAweAXYEPMH3m0/vwDLgiAkwrzgR9g4LYasm+E7DVpzZOJht4ptYX/Eh99PAzybC08WOrxQsgIGr9uDvn0zisPrNk8+7BAx8ndWDX+H0yQu5v3gRikhXU4Iu0poSdBHpdHUwCfgP9vsknXUJOFKJTP7q4FHgIB+HdWNg0zaWnPf7AAa+DrEmvIfFfWHXMVBf7Hh7ogVw2Opx3Lv8s/RrGJp8PtYAQ16Eoc/wf7uv53vFi7D7q4H45gewYMXB7By9uhRVth6/2dN8/uBneLDgAYpIQaiLu4iISBd7Hvo4uAOo9BmWcTAgBncuhp1Hw6ZCxlfK5sJngYPW7ApLj4TmAcnXVgLxjbD5Q7jKOnbYCKcDtxQn0p5rLoz8+FDu+2QyFaSc4Ily+GQ/WL89332pljf3WMONxYmy+9t2DN/74LOZk3OApgG4tbvwN55haPolRKTUqYq7iIhIF+sHJ3gY47P0XAteG7UephQwtJIXhxNX7wYfngjN/Vu/nugLHx0Hq/YE4KQCh9crrBvHLz6ZTAWQ8QyvHwHLD+CaGogXMLSSsnYnvuNjtNm/ddPWbPbg5zm+IEGJSMGpBV1ERKSLeTg2j2WPAW7twnAAG+vaDH1Sn6+AeD0MzrSegwoPaVLhTw0AyrOsP9hnSNIcOJ95CAAx6JOAgdHnmgbw+aWfg0ytjj54bukRMOA19pm3jsuyxJ6qIpb9WAV4b1dOzGW5NbsxcKfHuHP+Ot7o6phKjYPYmyPZKtflmwdxNvCPLgxJRIpECbqIiPAk9BsAOzpoWgSvT4HmYsdUKjy4OhjSB2KNUAkQh8pmiMWhrBkGedg1j03uPx9+F9wvxxJevP3NHhRZ7tPXAhW0TCb7AX0jj/sHywBWmS5dQ11DhuejOlrAJtv62V5Ll4Ov3cW6UbfFl8HaCYwY+hRXt710y31KFg7Wj85tUR+HDdtwyqBXuzakUuRJ3wMkk6Z+7NhlwYhIUSlBFxHpxV6C7cvgf4EvYgkdu8CyOvhDPVw7qcSLIz4Plf2hfzP0D1pmB8Tt8SBnt74JS3rLYzAgEbSYeujnoK9PJrUDsXHkg4JEuRIbJjZkPjgHNJFMHsPkN1MS3IZtPXyto8deQuqBDVleX0+WuczXj2ZrWl6IyGjdDjRWzuMjHyPuHTFilOGIeUccexzHEU9A3MWI+S4YCujAe0ezL8cDnkQbF8MSNDnXNdcJPJThOna9JVGG82W5vf8A9VvSVLaBxnbvMEacEity7CFOrO1zqc8aaO6X4zbLeb+jcYlI96QEXUSkl1oA+3p40LfuzjwcqOoLpy2CQ8bCB4WMax5s1gyV5TCkGSrjVlhtiLekeHCQJA/20D9IpjfDEun+2LEMDO4PhGRXgNTkGVq2yIb3feRxqkK0pjqY52EpsMnBxmC/a1zLXg0rIzElfORCioNmD2siyzYC6yKPG7Ck91Mx2JjIUpjOwzpH5qQqDquaM7w9/aB5TMt48va7r9FnxBA2byxjuIfNY7Cldwx3nuHecw6wXS7b2TiKPm98m23TvJRwsNrDJ8BaB2u9Y63zrPaONc5TD6wN3qONONbGoCkBK2PQhGMtzWxs9myijHXxJnuv6vuyxm+yz+3Mq5OfWU9zVxONibLcvlOuH8PZh/6Xv3V1TKXowRU8tGlLDs+2jAN8AhqH8+0ChSUiBaYEXUSkF5prrcV307LLdCicQ3pMI/wJOCqfbb8OFc0wrBGGOxiWsIR/M2cJ9hAPleF9Z8l3Jda6XRncKKNlK3RUmAVGk+l2CFttV2KJ7xoPTQ7WAg0O1nuod7DBw0YHmxK2fH3MpkNrjFnC1hQkdgkHqxLBTyzu+ljQMtwA6yps+rQ924hr/kLYs7cMMfhnNf0b6xnpY4xIwLYxz4iEZ6SDrZxjGw9bYLch4dWBTz93H/zMoy3VO+4HfuYTrIqVsSZRz9pNnrXnXNfygoXkJ76a/yaGcVhby8WaaFi2LfcUIqZSFF/Dl+Ibeae5L/FM57UHKlZw/3F/4K2CBiciBaMEXUSkF4rDuZ6cChJ9bgF8Hni3OUi4sYRpmA8eOxju7ecWHoZvihTxSjdmOPo4jwR7ZZAIr8Zafzc4WJmwnxucJdhrHWxIwHoHqxxsbLbXVgHr47ChGdYugjXFSIAXwBcSMBvYlshb48AHFdw/BKb0hOS8pppyNjLClVmyDWzjPFt7x9Y+wTbOMQLYpr6ByjDjDhNvF5wgHpYByxzMTcCyGCxNwDLnWO49y2PwsYNlTZ5hMcccckjVnefHp87gmS478F6qcSjfIMECZ8MFMqvnuvOu1RSCmRw+m/cfGMKZG0Zze3NFy0KKzlvBw7LVLGIbTi1WjCLS9UpqDI9IgcwApqY8N4QSH4srElUHjzg4KNu0X51oE5Ykrw5vQdK80kcee/u5OhE8jsPqeli9R9Ai3RO8AsOa7PfLedjFDrD34c8VcOXOsLyI4eXs71Vs2eQY7WG082zvHaO9Z2vnGOk9IxxsmWX19cC7eD7C8R52YeJ97/ggluCDmOf9ivV8eMwN1Ocaz6zp3Ow952VdyHPnqTP4Yq7blPzUTOPsGNyCaznWOkwsY438o+ltTp4ys/QvQHW1ey5i2z4buKl+GIckKmymhT5r+cg387PKLfjFodU0FTtGEek6StBFWlOCLiXrJRhSBqOwQmNbACNj1rK9DbClg609jCDHolppNAArsERyhYNlHpY7WO5hhYflcVjRDMvisKwJVkxE3YdT1UB8LIwBWAFvHEr3+sJdcxmVZbB9IsZowkTcMZqEPSb91GMNwEcQJN0+SLo9H7g47wMfxht474RrWdvZ8f6zmv71DfwFOBla99zw8K/yJk7vin1LUu1U9sDzI+c4xscssYw1U5eIc+0pV3G7U1H8vNScRrxiNFuui7GxJ9cwEJGWlKCLtKYEXbolD+4VGNEI28WsKNYoD9s5ux/eMs5f3V4Obk3Aj/vB8o4W+5Lu4b6LqVhXyfZlTYxOOEu6HWyPYwfv2Z5k635UA7AEx1t43vbwVszxdjMsLuvD2ydXs7SwR9HazCoOd1YBfz8AD886z59OncF9RQ6tV6m5hH6xAYxsKGPlGdWl0StERKS7UIIu0poSdCmKIAEf1QyjnSXfo4FRDrbz1io+isg81jlYCnwMfODhoxh86K078UcOPuvhm7lsJAafHQeP531AUnQ109mmzLFzopmdgbHEGItnJ+xiTup3gARWsX+xg8UJWOw8i12MxXFY/HIf3q+ublWzT0RERDqRisSJiBTYXOt6vnMMxjgY42En4DPz7WdfaNkPNEOf0I3AO8A7HpY4u78kAW+XwTsb4cNJWabFeh4eqIAzsCnKsl2sfVzJeeequZzRsQRnOBjvocl7Hi+r4M6Tqts31v6+i6lYN4Sd4k3s7F2QiNttZzyDEi3nkluP4zXneQ54yzve9s28FXe83Xcd7+Qz7ltEREQ6n1rQRVpTC7p02EswpA+MSVgSvpOHnZyNOR5DMJVYGz4hSLx9cIsFSXgzvDORjncnnm/Tp93jU8ajh/mcs5b3gybAmx3dl9hc3sOGcw2eb+FaVmj2sAbPd06bwZ8yrX9XNVs01bNLPMbOPsHOOHYBdsZaw+Mpi78HvOrgVWBRIsGrsTivnnwlSzQOWEREpPtSC7qISAcssCnFxnnYDdjNwwRgF6ww26dXQTNcDf0EeA143cFrHl6LwetxeGMsXV/Majw8UAf7AlcBR4NVX47BJg9/9vCjCdZFXjrBsOH8FvgyrnWCHPMM8o6bZ02jqbmCu2P1jCM4p5xjArBbooHNYsGcbMEJVY8l4Xd5eM07XvHNLKpI8JqKoYmIiJQmtaCLtKYWdGnFQ2wh7OBhYpCETwAmYuPEY1lWXectAX+dIBFvhtfK4fVdrBp6t/AibN4HxsWgaSO8OAk2FDumnqRmOvvEfNvzbztPs3c4Wp5Tq4A64BVgUSzBKx5eq+vL2xoTLiIi0rOoBV1EJEXQPX0PDxM8jHcwcT6MAwZkWW0lMM/DfGBekIi/vju8X5ioO2ZPWAY8Uuw4eqpYgm/mckncW9f3px38I+Gpi8WoO+VK3unyAEVERKRbUIIuIr3a89CnAiY62Mdbd+99sTHjDtJ2M2oEXvXWojkPS8brJsC7BQxburFZP2Bkog97AZPw7OGsq/q2eWzihVOuYkYXhSciIiLdmBJ0EelVXoLt+8B+CdjHWTK+B9AvQ9WsD7FEfC5QF7P7C8fZfNAi1FzKCFfGpJhjL++YBEzynhEueULVAwu8Z7BzORUHxOlvs4iISK+lLwEi0mM9D5UVsA922zf4uWW0eFvESuBZB894eLYRng26fYsAcEc1w/tuYpJ3TPIuaCGHkRCURfc0Osc8D//w8JxL8MKKT5h/we9prK3iL8BZuewnAc932UGIiIhIt6YEXUS6hZdgSBlcCJwEbA987OBeDzfm2n08qKh+YAIOw26703r6KbBu6nM9POPgmQQ8uxu8pumnJFRzGZXxPuztm5mEtYzvRQPbJ5Kl25pwLAAeIMELzvN8c1/mTqlO37vCwy2urQTd44mxvqwPtZ15LCIiIlI6VMVdpDVVcS+weXBQDGZ5GE5yGm4POGdTfn11AtyWut5i6LsO9nNwmLeEfB+gT5pdLCZIxj08OxBeHA2buvKYpHR4cHdfzthEgsk49sezL7AryUrqzXgWEeN54PlEghfYxMtTfs7GfPZTW8XdwImZw8A5xyWnXMkv2n0wIiIiUtLUgi4iRfUSbB+Df3oYFDzVYupwDxXAn+fBuyvgiWGwt4PDHBy6DvYn/fjxV4A5DmY3w2MTYWkBDkVKxN9/wKCmMiZ52N/D5FkwmQRDgbAPxbvOLhg9lXA8Rx9enlLNuo7ut08T5zSVcZOH0wCCKc1dsN8mBz85+Sp+2dH9iIiISOlSC7pIa2pBL6A6uBk4r43FvINV3i4qDkrz+mJgjofZZTB7VyvuJgLArKns4GPs72CydxyAZzzJoQ+NwIve8xQxnvTw5JQru3ZqvFnT2Q/PuR4m4GnwMR73jpunXMHirtyviIiIdH9K0EVaU4JeIAugPAErsLHj+fgQmA3MTsCciSixETOnmrJljewZ8xzs4UDn2AfPiE8XcHzkPU/F4ImE51m/iefz7aouIiIi0lXUxV1EisbBduSRnHv4PfDz3WBR10UlpeR3X6PP0M3ZO+Y5OOE4aEUDB8SCXhYOmvDMc3CXh6dcgidPuZq3ih2ziIiISCZK0EWkaBwMznOVmUrOe7f7LqZi/UD2wXGI8xyEYzKeAR5wngYHz3p41Cf478YmnjjnOtYXO2YRERGRXClBF5GCWgx918IpDs5tgkPzWLW+HJ7pssCkW6q5hH7xfuyXgIOd5+ANjn0d9APAsSmYJu+ReIz/Nq3nKXVXF5FOUpPDMquBNdgwq0eA+V0Yz2Dgp8AJwObASuB+4KtduE9paSqwZwfWn9JZgbThRmxWnHuAOwq0z1z0A/2NzoUSdBEpiEWwdQNcuA4ucPblAoBgGrW+OWziL2Pgml3FAAAgAElEQVRhbReGKN3AnGrKljeyD57DHRwB7Oeh3AE4NgBPeng05ni03xqeOeYG6osbsYj0UKe1Y52/Ywnzsk6OxQH3AQdEnuuPvscX2oHAscUOIgfHAqOAN4sdSGBH4BfAX+leFwy6Lf3HFpEuNR/2Br7TCKe55BzlCWC2h1u8fem438G+WTbzfiNUdXmwUhR3Xc4uPsERCThiRQOHRIY+bPCO2THPf/H8d/kKnr3g9zQWNVgR6W1eAh7M8NowLBE6CLvQfAJWA+NI7O9cZ5lMMjmfDfwSm4Hi3U7ch7TtcWBDmucrgc8F9+vQULyogdh70g9L0CUHStBFpNN5iM2HE4FLPewXeWkVcFMCfh2tvL4IjmyC6z2cA8RStvVvD1/ds/NbJKRIZlWxFZ4jcJaUJxJsDeCgGXgOeNjHeMiX8eSUahqKG62IZFMHu3jYohne2QPeLnY8XeBpWs/skmob4AFgHHAYcBzWmt5ZdojcvwB4oxO3Lbm7OsPzE4B5wf07sixXKP8DlAMfFTkOsClN+xU7iFKjBF1EOo2H2EI4eT78L/YHCwAHrwHXO/jzOFiXul7Qdf28hVDdDCc6GJWApR7+NbFrx/RJAdRUMzDWyKEkOAI43MO4cJJPB68Cv8bzUCLBnCnXaDpDke6uBuK7wgUevg+MdtgXyjp4wcNPd+vc5LQUvA+cDbwYPJ5C574HgyL33+nE7UrPVFfsAKRjlKCLSId5iNXBKfPhh0QSc+ARD9eOh3878G1tZ1f74vHLLgtUCqZ2GmOJcYxPcKxr4ECgHAc4PnIJbsfxEE08dMq1vFfsWEUkdzUQ3wVmejjJQSLlF/ueDu6ZDz8dbxdqe5OXsKJxldiY20ziwD7BbTOsZ9kzwS21W/w2wAisG31ot+DnRmBhyvIxYC+s59qwIJ4XgCewHkrp7B7E9CrQAJwKjAYWAP+CVsOKBmJd+MdgLaPvAw8T6RWXohL4TLDtMHHcDTgYGIr1jns42H9btgj2vR02Lv9NrOfCyjbW+wxwCPZ+bsS6oD8MRZnlI/xMP8Hes72Ao4AV2Pud+jexH7A/1jtjKFCPtYw/gTV+pDOBZAv6+xmWqcTqvHwGqMCGSzxE7sMmDsA+xxHY+/8M1tsk+ithQhBzaDR2vOtI/3mPBA7HzvcE9v78h8w9KEdg7+dqrFfJBKz3wCrg30ATds6A/f/MNuwk/H/wAfBhluVEpEhmYL9gorfKokbUjdXBSXVQVwc+cps9z8bkSQnw4GZN44DaaUydVcWPaqdx4n0XU5HPNmqqGThzOifUVvGb2ioW11bhg9um2uk8UFvFJXdVMd4Ttp2LSCmqg0tTft+n3hJ14OfZl/9SFv79vzHH5fthSajHxomncxiW+KZ+x/DAy7QcEgbpv4+Et3kpy07GkpB0yy4k86wpq4JlDsGSmuh60Ur2DrgMS4ZSt5/AunZHk7HQscEy72AFYu/LEGMtVvgunUHAzSTf3+htPXBphvW2wXoypNvfMuDrGdbL14TIdtsaDhF+prcDp2NJZLhuPbBlsFwcu8i1ivTxe+zz2oLW3glen5HmtThQjfVcTN1eM3ATLXtspDoUO5/SxfMCdiEhNY7U22Mp2xwG/CXlvYi+J78ifTf5qcEy92LDSuoj6zUCl0ceH57lmHaJLNctfm+pBV1E2mU+7O3hWuyPOgDevpT8eDf4b9ECk7zMnM7+s+D3ePuj6gEcbBjEitoqfnDqVdycad3aaYzFcbSHo10DB2NX7MHGof7WO/7t+/DwlOrWwxpEpPTMgTIPlwY9ojJdbHOAj9mX54cKF13RfZNkIdQn0rx+EnBnsMwqrPDcImAr4GRgIvY39FhgTrBOHTATa5EPp/eaGfxcEtn2kcA/sEJ167DE7RUsIT4JS0D+jbWO/zND/N/FWnKj7o/c/wPwleD+a8CjWGvj7lhydHpw/wDSt2hXBPveF2vtfAFL7D+P9SQ4BdgEnJWyXiXwVHAMYNPZPREc64nYe3Mtltz/OLLedlgiuG2wn4ewCxhx7D3eBfgNlsT/ME28XW1b4PdBPKEXgI+D+38Azgvu12Hv92os3qOw8+Yo7JzKdcpah11ICad7W4i9Rx8Bk4BjgC8De2CNLKl/u88EbsHyx9XALKzFfSds1oM9se9/e2HfA/4VxHlisP4z2HkbLaK3OfZ5jgkePxlsoww7rycC38AKDh9K+iJ9mwN/IvkdBOwcvQ47rzfDzquH078tnB38XELmi2siUmRqQc9iAYyaB3eErSTB7dG58Nlixyb5mXk5h9ROo2FWFYlIi7fdpgXPTUu2Btx3MRW1VRw1q4pfp7SS19dW8VBtFZfUTmNsMY9JRLrOfDigjdbz6K1pUfaWuO4ulxZ0hyV6V5Fs/VuJdb2N2pZky/OzRKYaDQzHEhOPda8dkvL6hZF4Ug3HWoM9lshtk/J6JZaceqxbdWps0Rba2ViX575YshZ+fudFlrmGlGKuWBfscDup02iFLehhS/t3aJmUbgY8T7IFN7VF+MbgtSbsIkBUOZYEhi2m0aEAjwXPr8J6F0SVYclbGFO21tVctKcFPYztZOw4diLZg+IAWr7fqfqTPG5PyyKCkLkF/duRdX5E64tsh2M9Ejzw25TXtsLObY8Vc009h/eLrHtn5PnKyD7PSHMsYQ+HBlp/vg5LsBPBMr9JeT1sQQ97UpyBvZc7kPxOGp4/q0nfQyOGJeYeuCLN60WhFnQRyckCGJiAqQn4rkt2NXoD+MEEuLuYsUn+5lRTtqKBm7AWsdYtYc5awYArZk7Fuxh7b7Cr9QODb4hvo1ZykZIyD8bG4CftXd/ByHQZYgbxJrhzfprCoLnysGSCFaIrpi8DX8zw2mYpj1djCVdq9exvYdNHrsemYksdU7sca8V7BUugvwL8LMf4vo4l6Q1YS2XqmOPVwbbfCOK9iPT1AdZjLeyfBI/vC37GSE5zOptkUhT1ZLDNXwJfwFqk083BfSs2H3bUSixZvDfY1y7A0uC1IcD5wf1wHu2ohuD1JVhOcwZWQf0wbM5ysIsbT6Ws1wT8AOvOPDE4vkytq13ph8Bdwf3oePL/CX6uIH3r/gas18AxweORwFtt7KscG6IA1tvix2mWeRi72HQFdlGmmuS5fD72eTRgLfCp5/DT2Oc/Deu1MZC2/+/vBhwf3J9B68/XA/8HjA/iOR+4ktbj9MP1w4tDb5F8P27BzoHBWE+PO1PWOxS7gOaBP7cRb8EoQReRNtXByQn7xTsyeGo5cHUMbhiHpsEqRSsaORrYoY0R4Q5H3Dmuxq5gP+c9/3COe0+9qtX4RxHp5uIwPGFdUdslj+Q8XP7o9u4r0B2qUVcEt2zewrr7/pz0BaZOCX7OzvA6WEL7OJYwHEPuCXq47adJnxQT7PNBLIE/hvQJ+pMkk/OoCVirOlgClOk0+AuWRMeCfdyQZplMF/MXRO5HeyweQ3LYwB8yrPsh1k1+Ockk96Tg5ybsc0knEcQ8EStYl0tC2dkyDTeYhiXKQ8n8HSs6xCGXnir7YK3gYMedyZ+xBL0cuygfJq1hIv0fMhcEvAE7x18jt/fy2OBngvTnS+hnWIJehv1OSXcuZHovn8XOr3FYN/fUBP2c4OeTwOtth1wYStBFJKOFsF2z/dI8LniqEbi+Ca7Yw7pmSalKcEiu5docvFsGe59w1adj40SkBDXB267tLrgZeYg5qHIwgDYKPjp4PWEFp9rNZa7eXEgPAn8M7jusFXE/rLW2AkuqzybzHPBDserVYN+7v5ZlX2HX8d1zjK2c5MwpiTa23beNbWea0nRS5P5n2tjHGizBzrSPTK28ayL3B0bu7xJ5PVuV99TW772Cn8uBc7Ost33wM4610j6dZdnOtp7M5wxYEbe1wX2HjanfKbjtRaT+T46in+OuZP8c67Fze3eSCXpY/O3FtGuYD8mvAno4I8Eb2GeVyQLsO+eQyDrplsnkZizJPwrrbRLuawDJizndpvUclKCLSBpzoGxz+G6zXWUfEDz9eAIu1LzkPYNzDM6xNcx7qFdyLlL6JlrX0HRjWnM2z768Z2vd9cE/X9vNCnqVujdJFmYL/T64/RvrSj0f+BzWCpdqWOT+0eTWq2AolqxnmxYKLGEJx3MfQm5JWxzr6p5ayC3TVGXR+HO9uJOumjtYd/t0Mk0BF46XT9eyn83w4OdI4Hc5rjOs7UU6VVtTw1UAX8UuBI2ndSt5W+dGqujxpevenk74OQ4kObSxMy+ahTHl8v3iY+x8T3durcWGLWRyGzb0oQ82XOVXwfMnYe/rRlq3rBeVEnQRaWEu7BmDW3zyqvwK4LLxcHMuc5lL93Xr9xnQr4JjYp6TfbKqalYOSLSea1dEeqlF8MuxMNnZeOUELQuGhdXdqyf0jOQ8m6ex3mVzsAvZ92Etm6ndzKMF0WZjrYW5yKWPU3Tbj5P77+p03aZT5zsPRT/fm8meCIU6a2hCuO98p+cM13uD3KtyL2l7kU6VLcEehvUKmBh5LpzTfh5WDX0hMDeP/YXviSfzcIFUzwY/+2RdquPyOdc3pnmtrYsVS7H/nydglejDBD2s3n43LXtxFJ0SdBEB4Hno0xcu91YspQz7Jf6Xcvjeztm7Hkk3dvtUNqtwHO8dJzv4HJ6+QfNWHY5xDlzaInEBD87ZfK0iIkyBZg9fqIPznc0/HY5PxsOzMfjReHigiCEW0mNYj4QqrGv337CK5tFkN9r6ey82Tr2zhFW1HZbQVXfitkMrIvd/glUIL5TwvdsMPi1cms5ArHBamKh9gk2/9jZwQRfG11V+jiXnYRX327GEPJqIRocRRIcFZBK22DtsjHs+vRJWYr0c4qSfdz1qEMmu+W0Jv1tulXUpu7gQ9qZob2++P2EJ+n7YcIGNJOc871bd26H1NAki0gvNh4kV8Ky3Lu1lwGIHh0+ALyk5Lz23VTN41jTOrp3OPytifITjFmfFWJ51jksSzWx36gx2w/OLbMk5gPe8NL+c2sJELiKlwEFiN/j9BBgTh5087N8HttkN9utFyXnox9j82mDjfC9NeX0pyarTh7SxrbCFb98c970Jq/yey7aPxloMD8hx26GXI/ez7aMMm6/6RFpP+9VeYQvxYGDnLMvNxBL024LH4eexH8mu2elMxCqDH0FyOF+xlWOV8AFqsWR6Pq1biaPvcS4NrtGx44dkWa4CuBg7F7eLPB+eB5NarZG0K9YSvbyNfYTCz2kHYOssy+1B8iLEoizLZXMfydkBwmKJMez/5kPt3GaXUQu6SC82B8qGw2VBYl5OMPdlDH4wrvDVTKUDaqoZGGvkODxfoIHPe0cFnmbveRSoiVdw98nVn/5xAiBRwbRYPVvhON3ZWHNL1j0eh/Oeulgzx1dX5z3WTUR6iV2t8nG3qX5cBA1YhennsK7AP8QSq+i0WfcA38SSgvGkr+UyAquS3h8b255rBfy7scToICwhTVfobAjWCrsZNuXY/jluGyyxW4LNMf5dbCqsdF3kTyfZdfgCbIx+Rz0U7Ks82OYlaZYZgVVhryB5Ht6DFUEbiE0rl65mggOux963DbSeH75YNsOOFzJXSwebii80OIftPoklzsOxi0h/J/3Y//Ox9wVsvHbYYyIcwnE4llCnK/g3Jfg5iPTDHMpTHt+L9RBw2GebenEr9L3gZwOZq7W3pRG7gPNd7OJDWA/hVvIfzy8iRTADS1Sjt8qsa5SgOtixDp6pAx/c3q6DI4sdl+Tun9X0r61iSm0VtbVVbKitwtdW0VxbxaMzp3PR36vYMpft3FXFkbVVzJpVxbLaKtbWVvHorGl8ZU61LuKKSK8V/v2/Mcflo98dHqFl76TR2EVvjyU241PWHYYl1h5LFg5Kef3CyLZTjcC6K3tsDvTUFs5KrPt7uP7/pLy+Kng+WwG4CyLrz6R1l+p9I9t5l5at1sdG1h2VYfuVkWXOSHntN8HzTSTHDIeGYBczPNatOuwq7bBx2h4ranhmynplwHWRfV6dIa5cTYhsq61CeuF5kmmoQBk2rMBjY+hTv3+WYV3go99Rv52yzDvB8zNSnr80ss6t2MWgqEOx6vIeu9gRHXs+guRn/AKtu6UfgfXo8LQszBfHzmmPzYbQh5Y9uP9K8vO9kJb/b8qAH0ViTh0eMjV4PtdZhcLPqYnk/8dsPTNEpBvp8Qn6PDizDlZHkvM/vp7bFVgpsppL6DdzGifXTuNvtVWsC5LyRG0Vj9dO51uzqtocyyUiIm3LN0HviyU14XpfTXn9NKwF0GOtefdhLZV3Yt2Cw/Wq02w7W4IO1tq+MXi9GZsa7nos+fkksu4v06ybS4LugFsi21mOtchfj7VyhwnYOqyqfVRHE/SBWEIYvv5MsN+/YeORw4saqeuNxi4WhOu9BPwaK3T3ZuT5x2l7nvu2dGaCDi2T0g+wz60Ku1jxfvD8Y1hF9XSJeKYEPYb17gi3/TE2J/oN2EWl8PlVwJ5p4joJu+ARXhC5E+s1MZvkObCA1pXWF0S23UDL1vchWOG78PX52Of0O+wCRfj8Q7Rugc83QQd4PrLNJ/JYT0SKrMcm6ItgUB38OZKYL61rfTVdupnffY0+s6Zx/Kxp3FZbxZpIUv50bRWX3DOdbYsdo4hID5Nvgg5wGMlEZSWtx9V+FusKn/odI2z9Pi/DdttK0AH2xpLNdNv+GOtin67mSC4JOsG638LG8abbx5OkT+o6mqCDJem/xi5spO53MZm/x2yNDRtoTrPeBuAXdM7Y885O0OPAtSQv6ERvS7Eu32XAXSRbu6OfbaYEHSxJv5RkK33qbQ7JOc/TOQgbj566XjN2QWh4mnWOJHmehctG3/dBWKJfT+vtfgxMp+WMBaH2JOjfiGy72xYQzHfaApHeYAatf8EOIfP8nSWhzrq93QGMAXDwcAzO3hU+LG5kkknNNCbHHGdi48DC+UKfB2riCWaedDVvFy04EZGeLSzCFRa9ytV2JJOJZaSvaL0z9jd5ONaleBHWMpxpqrPBJBOfdGN/o3YE9sGqbW/AxsI/jSU/6WyPJW2fkFuiUwZMxqr3Dw7WexZ4NcPy/UmO715C+mnaYkEcYAlopho4Q7GLHNti79UC7Njamvptc2zc/UgsMVuCtZ62NRd5rsqDbUPb7+NQ7DtlE21P7bYllhBvhb0nr2PHG54n0XnB3yY5lvrdIJ6rsSJzmWKejJ0vg7Bz/FlyrycxASveNgRL9h9r43j6Y+f8oGC5V2j9uVVin+92WI+QxdjnlK7mASSPPwE5fx86Hht/vx7Yhm763V4JukhrPSpB9+AWwHe8FeLoAzR6+N8JcK1TYYxup2Yqn3ExznJwFvaHE+BVD7eXxbjjpCtazbErIiIiElqDJcJVpG9F783uwYrE/QErJNgtqQCQSA/2Ogyug5scnBo89VYMTh9nV0mlm7ijmuHljXzRec7wdkUbPEu94wbvuG3Klfq8REREpE0DseQcrAeHJI3HhlyADZnotpSgi/RQ82DCJpjlkl3aZ1bA+WPsyqoUWc0l9Iv353gPZ9HAUUAfDxvx/BW4bcUK/nPB7zN2dxQREREJ7YF1I58SeS7ddH69zalYwcBKbMx5GVbUbm4xg2qLEnSRHmgenOvs6mB/oNHBD8ZbMRQpoupqYrs1cUgiwdnASd5TCTTjmQPc1qeZu064Nu14RREREZFMrqHlVLkLsLoGvd0Y4KrI4zVYobhuTQm6SA+yGPquh1/65Lia9xNw6kQrKiJFUjuNsc5xrm/gzERYSMYx13n+UtbEX0+4lg+KHKKIiIiUrk3Ae8H9Odj482xV/3uLp4EXsYr+zwA/xIoydmtK0EV6iLkwch3Mwqq3AjzYCGftqTFIRVFzCf1ifZmC4yvAZ4O/ku86uKY5zu1TfkpdUQMUERGRnuL4YgfQTc0B9ip2EPlSgi7SA8yHA7wl51sC3sOVi6B6is01KQVUO5U9iPEVrAp7JVDv4G/EuKmujNnV1aqcLyIiIiLpKUEXKXHz4AIP12NzWq4DztkN7i5yWL1KzWVUxsv4AvA17z+9UrsQ+HGinD9PqeaTIoYnIiIiIiVCCbpIiVoA5R5uiIw3fyMGJ4yzxFAKoGYak+Mxvuo9p3nPQGA9cIt3/OG0K3my2PGJiIiISGlRgi5SgubCFgm4CzggeOoBb/ObryxmXL1BTTVD442c4xOcj2Oc9+AcL3j4Y6KJv065htXFjlFERERESpMSdJESswDGJeCf2LyO3sG1C2G6xpt3rZppHByDC2jgZA8VOFYDv3Hwx1Ou5MVixyciIiIipU8JukgJmQdHJ+BOYBCwycGXx8Nfix1XT1VzCf3ifTnDO74F7BY8/YSDPzZv5M4pP2djMeMTERERkZ5FCbpIiZgH33TwCyAOLPVw4gR4qthx9UT3TGfbJrjIec73MBxY5+BGF+NXJ1/BK8WOT0RERER6JiXoIt1cDcR3hV94+CaAhwUejpsIi4sdW08zcxqfxfGtJs+JQJmHN3HMSDRxk8aWi4j0GjFg+yyv1wOrsMKgpaAMGBXc/wjYEHltVPD6GmB5gePqCiOA/tgxftQJ29scmIxNYzsQ+ASYB8wFTZsqXUMJukg3tggGNcGdHo4OnnqwAaZMQsliZ/lTNX0H1nO6i3Exnj0Aj+dhBzfUVXCv5i0XEel1BgFv5rBcA/AxMBvr4fZyVwbVAVuTPJ7/Af4Vee0xLEn/DXBRJ+3PAV8Cbumk7eXjj8Cx2DH+Twe2cwRQjSXnsTSvv4+9Z7/EprjtKg44B/hzF+6jvXbEehk+U+xAehol6CLd1AIY1Qj3AhOCp367HC4+FJqKGVdPUTOdbeJwkW/gqzg2x7Pewe+aPddPmaGp6kREpE3lwLZYMno28A3gt0WNqPjGYknyARQnQe+ocuwzPC/yXCPwDtZzYgegH7ANcEWw3GnAS10QyxjgZuBAul+C/iPgMuB7KEHvdErQRbqhBbBPAv6OddVqdnDpePh5sePqCWZOZ3/n+Taekzz0ARZ7z7VlFfzxpGpWFTs+ERHpVmqBq1Oe6wMMDW4HAudj9WF+BTwf3ErFv7BW0M6ajeREklPAlpo4MItky/sbwI+Be2jZSn4AcClwAtaK/AhwKJ33HoaOwM6v7qi62AH0ZErQRbqZBXBqAm7FrtCuc3DGeJtWTdrJg6udxrHOMRVvXxy8Z7aDGxJv8M8pMzVFnYiIpLUMeCHL67cBz2GtxnHg+8AXCxBXZ+msbu09QRXJ5PxurFdEujoDTwS3b2JDGwZjF3LG03J8v0i7KEEX6UbqYFoCrsTGHL0Xg+PGdd8xbd3enGrKljfyhVkJLnOOCdh4wZtj8POTZzC/2PGJiEiPcDPwA2An4PNFjkXaZytgenD/OewiS0Mb6/wK6+o+FRiNdff+aVcFKL1HuqIHIlJgC6B8PvwJuApLzl/oA/sqOW+fmkvoN3M6F61o4DXnuQ3HaODnrokdT72Kr5x8lZJzEZHO8Kdq+tZOZ1LNdPa59fsMKHY8ReKBuuB+JVZFPHQLUAPsiRUcew5YCTwNnJ6ynX7At4H/YsXn1gGvYcXIdmojhr7Ahdj0q8uC9f8FHNTGejcG8Z2f4fUhwHeD7X4ErAUWYsPuRkaWGxts54zIczXB7XNptjsZ632wONjmh8ADWEG0tvKTfYC/Yl3Q12Dv/VSgoo31srkwsv502k7OQz/FCsaF24g2fh5I8j0YnmH94ZFl9gyeC9/L6GeS+l6OjTwH8Fns8/4IqzT/HNabY1CG/Yaf+xkZXgd7T2uAn0Se+0lknwQx1gTbExHpMjOwP7bRW2VX7ex5qJwHD9eBrwM/D2bOpdd+yemQmsuonFXFtNppfFxbha+tYvmsKn5UU83QYscmItKT1FzKiFlV/La2inXB71s/q4pNtdO5peayT6f0KlWVJP/+55p4PBksn5rYrQqe/0bkfni7ObLcGOB1Wn//CG+NwAUZ9r0lNu493XrNwDWRx8emrPtOluOcDLyXJaZVJC8AHJhluQsj24xj3cIzLeuBOcBmGY71e9j0ZunWew6rSu+xIrv5eCFY7z2soSQfP4/EEB0zfkbk+Uz/J0ZFlgk/m1zey+gyF2AFhD2wEStmF772KrBdmv2Gn/uMLMd1b7DMY5Hnwvc39fZOlu1IntSCLlJEc2FkBTzm4DAAB9dMgCkTS2du1W6h5lJGzJzONbE4SzxchaPeOS7Z0MB2p1zFj6dU80mxYxQR6SlqLmfnWDkveUsMPr2g7KECz5ficV6eNZW9ixhioW0D7BHcfy7DMj/GxirfC1yPzaV9S/DaMOAh4DNY0vtNYGes9XMy1rJchlUXPylluw6YCeyFXRyYjiV9w4FTgCVY9/t8jQT+HRzbR8CXscK1Q4EpwAfYhYy7gS2A+cCRwE2RbRwZ3KJ1dK7AegmAtbweiCXj22EtthuBQ7Ax3fGUmE4DrguO+RFg/yCe3bAq55NoX1G1gcDE4P5TWMKZj/sj9ye3Y/+pwvfy+shz6d7L0A1Yj4njsP+PA7GeCKuxnhf303nDmi8J4ghdHzw+s5O2L2gMukjRzIMJDu7D/gg2O/j2ePh1seMqJbOmsoOPcSlwLp6+wCLv+Y6v4PYp1Tl3TxMRkRxVVxOL13Ond4zIstgQH+Nv913MrsfcQH3BgiuOPbCktG/w+I8ZlhuGXdD4feS5sKX2Kiyp3gAcjCXvoaexltV/Akdj3xP+RbKl/iSsezPAV7Eis6G7gGex6uKb53FMYK3ug7Fu9gdjXe1DM7Hu5c9hCfLXsa7PD2FJcuihlG3uik3NBdZi/43Ia6uCfS7AjvUwLOkLj6cPlpyDJdFHkXwPVgLnYsn91/M5yMBWJC8GvNWO9RdH7u/QjvVTrcLeuzGR51Lfy6gG7P16NXicAP6CDRt4ENgFOzd+0wmxpc5QsKiN2KQdlKCLFMECOCxhfzgrgY0ezphg03hIDu66nF0SzfUm1LIAACAASURBVPzQO6Zgf1Sfc44ZdX34e3U1iWLHJyLSU01o4GjvPm1tTMtb4rnDxoFMwRKFUnYcLROl0GAsqY5eqHiYlgly1Pu0Tt49Nl797ODxTbRMzkPNwDQsQd8KOB5rYYZkxfi6DPt+D0t8r0vzWib9sOnSwAqhvZZmmZeAO7EW9lx7/X0dOzc2YK3l6dyLtY4fgo1vDo9pMslu4peTfoz4VKzluH+a17KJDoNbnee6AMsj9we3Y/2O+hXJ5DzqISxBPwrrbt8ZCboUgBJ0kQKbB2ckrCBcObA8AcdNtCvk0oa7prFTwvHDRIIzcMQ8/Ae45rSreLjYsYmIdHd3T2X7RKxdLYyf8vZlPzeOqllVjGv3zhwfnXIlv2j3+p1jJC2LoaVTj/1d/x5knLbzcUh7AXlfLCEGG3udyVyspXgzrBt3mKCH3Y0fzLLuveSXoE8mmeTel2W5fLs1HxL8fB4rDJfJo8Gye2PflRqAw4PXNmJF9NJZjY2Rzv0cNR2dajXaFb8Y07bOyvLaA9j7MRnr/q4hlCVACbpIAc2Dy5wV5HDAm3E4eoIVhenV7q5mSGMjO8VirJ8f55XUVvCayxkd9/ww4TkbKMPzkI/xo9Ou5MkihSwiUnIa44yM+U+7GHc5b5Wmx7Z7AwnqoOgJ+kIsuU7VhFXLnoe1+C5rYzsfZng+2iX6erIn0uF4/7Do10Csyjpk75r9OpY4po7pzmSbyP03clwnFzsGP/cE3syyXNgK3RfrobAE2DZ47m3svc9kIfkn6O9G7mcqTpdNtEL70nas31GL/j979x0fRZ3/cfw1GwgdEbCdFUVRIIpnV+yeDcspEj31LKc/PRuWOwsBNTbA3k5OPT31bGcEu57lbIddbITYFcUuFqQTkp3fH5/vOJNlZrObtinv5+Oxj91M/e7MJtnPt3y+WdYF17kI+A36ztkmKEAXaQEVULSB/eM93i16LQ17lxTmD3mrUVHGMA/Oq1nCiJRHEbUwNM33k8dwXZcuXFa7lH41PuNIc4RvtehT0z5nl07g+UKXXUSkzanlW1J1xkA3xHBsLHH9fD7Fa9T41K/q36TZPU/4v7sxFicsj84SU19LfaBvxjPYdGNJ0thY8lxnpIked2GO+9THI2yV7+keuQjKHATOS+vZviFd1L/HWpZ7ECb7y0d03P27Ddi/sbL1RlgUed0ncStpVRSgizSzadC9K9zlw75u0aNpOLCjZ2q/dyz7ej4VQHGdCU3SrIDHeYurOdGzWvQuwCteirNHXqhEJCIiDVU6kY9JnqorJ1PKGOHnOoWVx7kHjOeOxpyvA5gfeb0VuVXcB8H+j5Fl9QXfnfMoUzQo70rDgt5MPjYUoAtwA3BJjvt96Z6D2Vjqm+u8az3r4/jAg9g47a2xyoCf89h/78jrfL+n5FpRkU1XkiuAoseP6+XRLWZZINceF9LEFKCLNKMPoP8SeMS3MWZ4cOO7cHxpYcYotRpTylgFq7RY9guDZ+G6Zxlnf/Rg5MjxPNrCRRQRkRiVxfynZAnvZEsU54Hvw8zu87i3JcvWRn0Zed2d/LKILyAclz4wy3YrkV/itGiX77WxKbzibItVKsyEnO71l1g395XIP1t6cJ0GEI5Lj9PQLOp3YQF6N2wqsXNy3G9dYH/3+jmsO34g2hCTlDyuf8LyfKyDZb+Ps4F7XkLdYRbB9cuW1K5fI8slDaR50EWaSSWsUw0veRac+8C4oXBsRw/OnZN9n+5Qp+08zvKpdOI/HRERaWHl5aR9OAiPb7NsNsdLc1AHmGKtKbxMOKZ6VJbtVsIC4ZewOckDT7jnvUn+Xr97nmV6LVKmbPv+GcsQf0FkWVJLLlgCN4BdyD7WexI2F/h9hI2JwVzjxSSPMS8Gdsxy3GweB952r88kt/nUu2GzFARlvChj/ZzI66T3u2WuBcxijyzr9nHPz0Cd38egbEnd3rtj88snCeaKV2NvM1CALtIMqmBz7J/oukC1B0eULPuHu8PyYR8v/OOeTaqmiD2bvUAiIpKzAybwfrqajT3rqvxrK6EHS/C4rchjo5ETeb2ARWxLfsYCUbDAe5uE7SYAa2Et1tFEX7e453WA02L2Ww44O88y/QS/9lw7kfix8YMJW46jrefRILBXxj43uOeewNXEV9Jvgc3ZPQT7nhBUFLxKmAxtQsyxwQLrfOd7D9QCR2FjtouxgP3ALNsPwILeLdzPN7Ns9/avI6/jvsusBJyc5RzRhLnZWrpPp+50f4E/RMr3z4x1QQXb9sQPjziX7MMJgpwHDb3ekoUCdJEmNgP2Ttsf7RWBeT6MGJo8L2rH5LGqX3/rudv018ytIiLSSpReyrcjx/PnecX099Jsjs+WC6rpd8BFHPH7i+p0kZb6nYEF6sVYi/jp2P++rsAw4G7gSLftZMKWaLDp1YIp1y7BWrTXwoKrHbEpydYmfoq3bM7Exsf3BV4ERmJBYj8scH3cle8b4IrIftFu1HcAo7FGC7ApZW91r/8IPIy1IAfZ2o/F8ht0cucuixzLB45xz0Ow5H3bu/e5FnApcB65Vf4neRMoxXoB9AD+jfVw+AswAtgJOBy4DetSHrR+P0J8IsGPCOcnPwPraTAUGITN8f461oKdlJMo2kvldiyY3yJmuxWxz8ReWKv+yti1u9Wtf4rwMxJ42D33xT5zv8MqHXbE5rc/g+wzEwQ5Af6MfVZOyLKtiEijTcD+wEcfOWU+nQ7HVkJNJfjT4asZJI/R66imjGW/KWUsnlyGn8tjShknFbrMIiLSoSxH+P9/UiOPNccdZ0I9222OZa3P/P4RfTxBfFKxHliLd9J+F0TKMSJj389Jfp87YInoko77Nct+z1kBq2yIbnddZH1X4M563ufPhPOeZzoIa6WP2+9D4Cb3OrdEhvE2xOZqz1ZGH6tEGEP2ZGo7YAF43P4LsaEJwT3IvDf9sUA4uk9wn4ZHlj2YpYz/Jf47bGfg6Sz7PYJVCPjUrRAKXJ2xfS3hNIDSSMrOJ7KsXVh27NFESB5L54N3AFzoWe11yoeqIthpqP2zEGDKWLYsHc7t8OscvLn04EmnU5x47//qjOMSERFpTkXAeoRzoL/ZiGOtj7Wk/g+ozLLdV8CNWCDdAwtku2JZ3Z/HuqmXEZ8cbSlQAbyHBcg9sa7hrwN/Bf4WKcfj1G3lXg+bWzzufX6GdY2udcfs5Y77oSvrYW6bqIXuHMGY61nY2O7n3M81WJf+F7EeA73c+1zkyn+LO27StZrh3ms3t293LIHcrcChWOt7GusSHzd/fS6+A/6BjcVPu3N0d8f+HusJcB3Wq+FJsrfaf+bK2xXrfdAVaxm/DzgCuw7BPci8NwuxsffRa/kOdi3XIMxFcDTWQr4q1iI+D7v3ZwNnUXeqtUAaS4z3tdunD/Y99y3gfKwXR29X3mnAsxn7P+2274ZVVEx31yLbdH+So5y6mIp0MBOwP2hRfUiYZqQKitP2h/wwt+g5H/bfML8pOtqt+8exTm0tF+BxEPZP7FYPrsNjqu/Tjex/h+46YDyHtExJRURERNqE4YQt29vS8MoIaYWUeU+kET6C3othCtbqDnBPVzh83Syt7R3FfWPoV+sxpjbNSXgU+x6PF/mcvv94ZgDcW8ZRKbjdX/bvkA94+FSlbOyaiIiIiEiHoABdpIHehlUXw2OE01BcPhROzzE7ebt1Szlde1dzQhrGedAHj7c8jzMOuLBudtNR4/l3xVg+9eA8z2dXgi7vHj97Ptd1quXSfS9hXiHeg4iIiIhIIShAF2mAKhiStuB8DWxs1mklcE2Bi1VQPnhTxnIQ1Uz07brM8uHkqs7cUV4enz229CJeA/a4r5wVa5cwKOWxoG9npu9Y/uu0KiIiIiIiHYYCdJE8VcIOaUvusTyWeOPQknAO0w5pyli2nOJzDT6bAXPwGZNezNWlV8YmJlnG/uV8jyVeERERERHpsBSgi+RhBhzkW6bQLtjUI/uUwEuFLVXhTCljFWCi7/NHoNaDSUuKOffgcn4odNlERERE2qlpwDru9deFLIg0PQXoIjHWBoZhvyDvA7PAmwqn+3AxlnV8Zhr22Ag+KGQ5C6WinOJUNSf7cA429cqzaZ8TSyfwbqHLJiIiItLOLQY+LXQhpHkoQBeJqIKNP4ND18hY7sNMbKo1gGkp2LvE5rHscO4tYw+vmmuAgcDnnsdhIy/i/kKXS0RERESkrdM86CLODNgG+K8PXbNs9k4Khg+B+S1Vrtai4iwGekVc6/nsDizyfMbXLubyXMeZi4iIiIhIdmpBFwGehU4+/AsbW57E92FgGnrQgQL0inJ6ppZyLj6j8SnG5550mjNKL2ZWocsmIiIiItKeKEAXAfrBXtjQ82w8z4Lzo4DxzV+qwvLBmzKGw6hmArAK8Laf4tRRF/JcgYsmIiIiItIupQpdAJHWwINdc9zOJ8dt27KKsWw+pYyX8LjVg86+xwn9itlMwbmIiIiISPNRC7qI6Z3LRr49LdecBSmku8rpX1zNxfgcAaQ1bZqIiIiISMtRgC5iPs5xO8/Pfds2o7yc1NAlHOW6s/fD57m0x6ml43m70GUTEREREekoFKBLh1cBRcCg/HZpP+47k43S1UzCY2sfvvPgjyMncKf3a4cBERGRDqUPcFbk5wXABXnsfzrQz73+DLi+aYoljbA7sAMwB5jYyGMNBka6462C9cKcD7wLPAXcA/zUyHPkKgWkW+hc+SgCagtdiLZK06xJh1YFPdNwN5Ykrl4+vFkCm3mt849hXirK6Zmq5nzgJCDlwfWpYsbuV86cQpdNRESkgNYAPs9YVgLMyGHftbGedsF37BeAbZuuaNJAE7BKl1nAmg08xorAFcAfyJ7Hax6WTPhSmi9IXR+4Fktc3Jpm1SkGTgH6A2cUuCxtllrQpcOqgpXT8AiwiVt0sweDfBjuE/5nDV578JEPo9pDcD5lDAf41VwFrOp5vEEtx42cyOuFLpeIiEgrNYrcAvRS1ADWHg0CHgXWcT//CNwPvA3MxYL+LYE9gF5YhcAOwP7AwiYuy5bA81gw3No8jCVT/nuhC9KWKUCXDqkKhqTtD+2agO/BWUPhkmeh04PwwGYwogT7D/spsAKc7cHlW8Oigha8ke4fxzo1Pn/zfXYH5ngwuvZDJpXeq25IIiIiMeZiXZhLgXNz2P4g97wU6NxchZIWtRzwGNY7wgeuAs7BurVnWh+4A2v82Q34F1a505TDBvvROoNzsC7/0kgK0KXDqYKd0jAFG2O22IfDSuBegB2hBqgERnTCBtAssd2upQ0H5xXlFKeWcFZtmrM86IbP3Z7HX0aO55tCl01ERNom/0r6UMRo0hyEx7pY196ngGu9k3mhwMVrKg8Ah2GB11Cyt6JvAGyEta5+DGzR7KWTlnAtFpyDDQu8Lsu27wPbYy3JO2Jj1f8A3NWcBZT2RQG6dCgz4LA0/AOrefzRg31L4MW4bWvco62bMo5d/Gquw2M94EMfjh81gacLXS4REWm7/GvZFJ9H8VkR79fRYMtjLc2l/tVczWhO9bw2n3D0VSzgWhN7b9kC9KD1fAqWSCwXQdfo5bEW2WlYkJeL/m7flbDW+l+Ad7BkZdmk3H4buP1+cOf9LGH73wBdsa7a3yZs0xdr+Kih7pjontjY7WD5csA+7ucXiR8/3RfYBlgVWAx8ALxGbuO5g2uyKvAd8F/iW7pztQ4WYINV1mQLzgMLsLHhM4DuQDmW7yj4XSgGVnOvv8beY5ygUuAnLLldClgLWDmyzRpYPDcXu4/BNgBfAtVum22Bbtj1fhmrTIuzsitzvve6P9bTJGjZ7x0p/6cJxxGRjswHrxLOrYR0JfiV8NG7sG7C5hNslzqPNjf3+ZQyVpk8hrsml+FPLmPh5DGcU1HeartEiYhIG+FfQV//amb7V5P2r8aPedjyqzix0GVtoDUI//8fB1zsXr9Xz37vu+12AKa611MTth2EdZvO/L7hYwHUxlnOszHwOJYTJ27/6ViAG+cg4KOE/V4AfhuzT/BeHslSpuC7U2ZyvYMjywcCX0XOtxQbrxzoA9yABZWZZfsca41O0gW4BuvtGN1vLnYPk8pXn/Mjx9o6z33/Ftk3ej9KIsuHZ9k/2CaYUWA54u+bD0yK2WYTrEKhNmPbn9wx43IlPELD7vWkLGWTPKkFXdq9adC5Cm4EjnCLXi6GfQZZTWO7U15OauhSjvd9LsRjOeA/RSlO2u9CPil02UREpB0o+jVLcxLPtaqf59/CTd6RiS2EbUUFlpF6fWBDLADO9Fss6P4a+F89x9sUeAJriazBAvIPsQB1N6wFeCrwe6wFOGoLt6wnFsg+iwW9PYBhrgwl7vhDqBtERbtaf4YF5AuxFtddsCDyGSywa+rvDCngNqw1PlALvyao7e/ey1D38zvu4bmyrYENRzwduDzj2J2B/2BdysGGKr6GXd9dseDx4waWezv3/AvwSp773g+c4F7vTkKPzTzUAm9gQfhAt6wS+xzE9US4Dvu8zMI+w4uBvbFhGBOwa3p8I8sUmOXKNhhrqZ+dUCbJgQJ0ademwXJdYYoPOwP4MHk+HNbWk70lmTyOdanmZqwr05eez9EjJzC50OUSEZHC88vpxIr0avSBlnII4SQnCSfDA/oyj/38STzeoPPUUOuNZm6D9m1ab2AB3kDgAOID9APd87/JPttLT2AyFjzOxLp7R7vNrwLchwXpd2IBz4+R9ZPcMb7EgseZkXUp4FTgMixgPwI4L7L+QvdcgbVsR7uMb40F/ssBpxEGlk1lNfe4AmtZ7o0F4z+79Te7nxcCh2DdyQPd3D5/wnozvAp1chycRBic/wW4krDldg0sKfBQGiboyfAm+c/i83LkdUPPHzUfq9wZQdjCvRfJgfAWWC+NUqzbPViiwyuAk7GeBQ8ATzZB2Sa6x3SsgmgyTRf8dzjZ5vATadMqYZ0u8HIQnAOXl8CB7TY4L+ME0ryDdZe6vnMNgxWci4jIr5ZnS5byU6MfNrY0t6nEfO5q8Hn8VpVorsI9Hxizzossv6ee4xyFjTtPEz+m/Ru3fDE2dvu4yLoNCLugj6VucI475hXAF+7nAZF1PQnHBFew7Hjul7AcPS9hrcXN4SEsgJ6JtY7f6ZZviVVUgLWQP5Cx3yLgWGyIQRH23gMpwvm2K7D3H+1WPQvrGl/dgPIWYxUJ0LBelwsJx3qvnG3DZvINVhGzILIsjd2Dt9zP41q6UFI/BejSLk23WuVXsH9mNcDxJfDX9jCHeab7y+lzbxn3YrXL33mw8wHjOW7fSxITgIiIiEh+gsB7Paybe9RWWND9Mda1OptS9/wWlpgtzhdYF3Wwbu6B97CEcFvjZp+J4RO2qPaOLF9IGKj9lTCRWNTJWDf3soRjN9b9Ccv3d8+12LRkcWqAW9zrXbAKB4DNsGsCVsEQ50Ma1krcM/K6od+p5rjnHg3cvzH+SXxlSy1wk3u9NdabQ1oRdXGXdmc6HOFZkpFi7A9TaUnTdN9pdSafzZDaah7yrFb8vqJijtqv/Nd/BiIiIqGfeYUVm+DLeA134rM79bei+xSxKallWnpzPU8uWbtbynQsCdz6WJAd7eYe7d5en03c81xsfuwkQYPCRlircXAtvnePQAqrHFgPG3O+HWErezQxbBrrRj4aa7H+FHgb6/79ANaFu7kTer2dsHxT9/w9sEeW/Zd3z52wSpKXCK8nhOPZ47yMdQfPxy9YxUAn6gbr+QjKXIjvZkkJCiGsHCrCPmPPNn9xJFcK0KXd8CE1w8a/nO4WfeLDXhvmPl1Jm3JvGTtTy2SgpwejR47n2kKXSUREWi+vnBrCMb8N5l/N5WQPpAKPeifyZmPP14r8G5syaxRh1+Aiwlbxu+vZvw+WbRxszPSOWbYNdMKCvGgX68HY+N4tCZNy5eJMLBnbwVjlysbuMQ5rdX8Qa3VNCqQbK+mzF7SAr0I4lKA+K7jnFd1zNdm75n+V43GjarFu4qsTTouWjxUIA/t8s8c3ha+zrPsu8nqlxK2kIBSgS7tQBT2r4A5gX7fo+WI4oL1map9SxhG+ZaZf7KcZccDE9tlDQEREWh/vZJ72r+Ef+PwfycniZpPm5BYuWnO7BwvQ18NaHd/B5khfGWtRr2/+8WiL9ps0LFP6Sdg46+h3+G9dWd4EngLGY8F7psVYArYL3fOeWOZ3D0umdhKWHO5UbMqyfOQSUyS10Hd2z7OwBHC5CBLnBZ+9+lr/l+Z43EzTsAB9E2wu+HxmJIhOy5Y09CG3XA4NU5NlXXSYc7btpAAUoEubVwmrpy3xyDC36J8pOG5QwxKCtGo+eJPHcr7vMw74Il3EiNLxVBa6XCIi0sGcxLFcyyf4lFF3rDPAY6Q40Tu5gV3bW6/3sUB8Q6wV/R3C7u31tZ6DtSAHFRqPAufkef7NgKuw4KoKmyprKstm8S6q5zjvYa3m47BW3l2xceD7YLHB5Vi39+C4QXf7ziTrk9M7iPeTe/6YsDdCroLu/l2AXiSPFW9o+e4C9nPH/yPJ49zjHOmes80rnvm7E+iex3mSLJ9l3SqR19/FrM92/uUaVhzJlZLESZtWBZtjtZLDsH8gZ5TAUUPaYXBeMYqi+8Zwu2fB+Zuda9iy9AIF5yIi0vI8D98bzcV0ZRVgfzzOwucEihjkncwI76R2F5wHgmRxI7FAeD8sAKsveztYK+577vXW2TbEpsjaFZvXPHAk9t29Bpsv/U6WDc49rMUX6gZSPbHvTIdSt9V2tjvOSMKAshM2I0wgGD+dLTBbK8u6+gTj+Telbi+DTAOxebxLCIcKRHMBxPUaCAzLsi6bR7BrBFahkWsOh52xsgI8Tt2M+9FKhKRrumauBcxi0yzrNnPP1dS9hkEPgWz3eu0s60SkI5sBB1XCwkrwK2FeVThFR2NNwP7ZRh8FrS2sGEXR5DLumVyGP3ksD1eUNzhZiYiIiGS3BuH//+My1g2MrBvtnl+KOcZUty4zUdfFbnktYTK3TF2wec596gZPj7hl32Yp+26R8kXn4f5DZHlS4LZeZJs/RJbf6pZ9SXzj3ipYlnifZcdaHxw55hoJ590nsk22+dcfdNtUY2PpceX5xi2fkrBfH6xLfFz5chEM5fCxZGpJrd6BjbBWaR9YwrJzoC8XOd5Y4o2LbHNWxrqdI+s2yHLsN4nvTdEJqHTb/Cdj3U2En7G4ntYrYvOxJ13L6W7dzTHrRKS98sGrhHMrIe2C88+rGl4zGqdVBeguOL9zchn+vWU8WFGetXZZREREGidbgA42LtknDFRGx2yTFKCvjrWg+liX7oEZ64uxFu3g/IdH1l0bWb5tzDl/iyVDC7aJBvd9Iud9nWW7fHvA9YRB5aqRdX+JHPPUjP36A/+LrG9IgJ4iDOwWYJUMmU6OHOfGjHUnRdadnrGuGzYMMql8ubotcowPgQNYNoDtA4wh/Fz42PztcT53678i7PEQ2IewwiMuQN86su4PGeuiAbqP5SuIVqp0Aia5dWmW7ckxmuRr2R94huzXMvgsvE79Qy1EpD2YCV0r4W4XmPvT4ZUqS87SlFpNgF4xiqIpZdzmWs4fVXAuIiLS7OoL0E+PrK8h/ntIUoAONn59KWEwfDfWYnol1hU6OPa/qdsdfUO3fRDIXosFgKdgrcfVwCLCCoTPMs4bDb5+xFpLx2Hj2qdH1l2Qsd9KWDf3YP1LWJA3xZUjTVip0JAAHSwb/Q+EgeN/sYR8E7CeAMEx3mXZ72QpbEx/sM2LwLnApYTX84OE8uWqCEucl46c5yfs/j6KBaRLI+sWAUdnOd4ZkW3nYZ+B691xfOAj4BXiA/S+GeWYRTiveTRAX+Ce38Hu6UXY9QvWj48pV3/3voJtXsHu9b2EFTxBT4a4a3lzZN+5WO+G32S5DiLSllXBypXwahCcV8LdMy2jZlNrFQF6eTmpKWP55+Qy/HvH8h8F5yIiIi2ivgB9TcIA6amEY2QL0MG6KUeDpehjMRY8xXUx3p+6wXL08TQWxI+MLFs/Y/+TsMApbv95wF+Jzyy+NRY0Zu4zFzgMGEHjAnSAdYAnE8qWxoLEFRL27YwF0Eti9r0BS/DWmAA9sDPhvY17LMESyw1KOoDjAZdQN6iPVjCsSTikITNABzg/Y5933PJogH4C8ETM8X/EpulLsgXx93o+cBTJ9xqsy/1XGfvtkuVcEqM5U/uLNJkqGJa2Grvgn+Z5Q+F8z143tQks+8ewD9nn12xyk8uYBByHx5PzOrPvkeV5Te0hIiIiDVOMJSIDa52cHbPNRlgA/S3xc2wPwhKzzcdab+OksMRtW2CB5xIsMHqSMLN5nN7YFGmDsJbdb4DnCBPQdcYCdYAvCDOdB3oCO7n9+7lzfYC1Wi/Ict7OWIC6iXv9MfAw9v1oOay7fjXUSWDbFxjgXleSWxLfQcAO2Nh2D7sHzwKf5rDvqlhyvQFYIPqMO29QjszyNdTaWCK9AVg3+l+w6/8cYVK9XKwK7IEF5L9giY+DCoCB2HX9ivi8A4OwfAIeNmXfy2774PyHYC3zw4FtsM/rh1iLf7b7DHZ/dyScXu5jbKhAtnsd6IZ9TlbEPnsvkf3zLCJtTRXsUwnzXKv5whlwUDOfsuAt6JPHcNbkMvx7x/D0w+VNMtWGiIiIiLRv0Rb0gwtcFmkgTbMmrVolnJ6G+7Ha3m9TsMNQG5PVbk0Zwz54XAh85KfZf+9yFha6TCIiIiIi0vzixraIFNxM6DrPkmUc7ha9nYa9S2yKj3Zr8hi28D3uBn5Kp9mz9OKW7VYvIiIiIiKFowBdWp23YdX5cJ9n47Lw4EEPDi2xcVztVsU4BpDmYQB89i6dyMcFLpKIiIiIiLQgBejSqlRaltDJWGIQ34MLhkB5MyWDazUqyumZWsKDePQHDjpgAq8WukwiIiIi0qbUYMn+ID6xnLQBCtCl1ZgBR/vwN6AL1lp+2FAbf97upZZwEx4l2tWSnwAAIABJREFUvs/YUROoKHR5RERERKTNWQD8rtCFkMZRgC4FNw06F8OVvs3XCPBpGvbdCGYUtGAtZPJYRuNzoA/3HzCBCYUuj4iIiIiIFIYCdCmoN2GFznAvsD2AB08XwYEb2NyV7d6UMWzj+1wKfOTXcmR778ovIiIiIiLJNM2aFMwM2KgYXsMF5z5cNRt27yjB+X3lrOh73APUpGoZpYztIiIiIiIdm1rQpSAq4UAfbgZ6AIs9+HMJ3FbocrWUilEU1S7hbs9jVc/nsP0v5p1Cl0lERERERApLAbq0qGehU3+YCPzFLfoqBfsPsZb0DiM1kNPx2Am4fuQEbi90eUREREREpPAUoEuLcePN7wF2dIteSMGoIR1sGoiKMoYB5wEz5hVzaqHLIyIiIiIirYPGoEuLmAGbdYY3cMG5B39bAjt1tOD8lnK6puBOgDT88chyFhe6TCIiIiIi0jqoBV2aXSUc5cN12Pzmi4Bjh9Ixu3X3qmYiMNjzObN0Am8XujwiIiIikqgHUAKsBnjA98A7wJxCFkraN7WgS7P5CLrMgBuAm7DgfGYKtinpoMH5fWX8DhjtwfO1H3N5ocsjIiIisZbDpj3N9pgHfIH1DrwMWLMgJc3NGoTlHpGx7nO3fFITn3PPJj5erh7B3s8jjTzOcOABbGahl7EpgSuA59yyp4BtG3mO5uQBexTo3FOxe3BnnvtFP6dnNXWhCswDfpfrxgrQpVm8Dasugud9OMYterITbDYE3ipowQqk4kyWS8M/gXmpNEeU3kttocskIiIiDdYTa1X9LZb49gNgVEFL1DqsBtwPPFrogjRQV+AWLMjcF2tgAlgAv06HmwJ2AZ4HzseCr9ZkEPAscH2hCyKA9cB4EXJvnFMXd2ly02F7z2oZV8RqwSa8B+eU0nGD0qIiLvZhNQ+O3G8inxW6PCIiIpKTJ7GegJm6A/2wVtQgkLsdmAG812Kla7xKYDYwq4mOdyjw+yY6VksrBh7Ggm+At4HxWCD+vVu2AnAw1sK7MnA2MB+4pEVLmt0RwPY03T2VxjkO2Ar7XcuJAnRpMj54VXCKb3+kOgFzgSNL4L4CF62gpoxlO9/nGDyeHHkRtxa6PCIiIpKzT7DuzUmuAE7Hvvt0AcYAh7VAuZrKXoUuQCtSThicP4T1iKjO2GY2cDUwBXgJWB24EOsO/2GLlFLaPXVxlybxEfSeAVN8+0fVCXjfhy06enB+SzldfZ9/AAvTHn8udHlERESkyV0Bv/aOK9S4X2mcNYC/utfTiQ/Oo74ETnavO2OVNCJNQgG6NFoVDFsM04D9ADy4NwWbbQjvF7hoBdezmnOA9YCzSy9kZqHLIyIiIk2uFnjTve4PdIusuwpLmFsCbAA8ho1XfwjYNeM4Kaz79BSsq/zHwAvYOOdV6ilDCtgfG/9d5fb/pztvNhNc+Q5OWN8F67b+ANZF9xMsUdpZQJ/IdgPdcfaLLLvBPbaPOe5grGLjVXfM6dgQgVwSaa2NtWK/DHwE/Bf4E42La47DAm2A88genAcexDK6P4vd0zi9sRwFT7htPgCeBs6k7vWL2h67bkHQPwRL4vcmdq2mAuNi9t/c7be7+7kv4T0oydjmHPfzqdi1fwPrBbJixjEHYUkQX3bnngFMxiowWjKODD5fV7mff4MNP3jFlWuaK+caCfufQ/hZ7AacgY0LD67nxcCqCfvunnHuOCWE17qvWxbcx+Dzv2pkm4FZjiXSONPhiEpYWAl+JVRPhxMLXaYmMIFls7Uul+9BKsoYNrmM6sllvFIxiqImLqOIiIg0j2gW91yzmweZq5dSN2nYHLf8KGwcc/S7xd2R7VbBgtVsWeNHJpy7Fxakxu23BAsGG5LFfQNsPH1Smb7CkuSBZT1P2u64jOOWYdcpafsK6lZyRB2BBc9x+z0euQ75ZnGvdPv9Ak32nW1n4LuEsvrADyxbSQN2vXzsM3U4sDhh/2+wADpwcJZzjcjYZjpWAZC5XXA/PayioibLMV/BAuVMzZHFPfh8zXGvf0wo00Lir+l0t/6cyOu4ffeJ2fesyLmTjIgcJ6gkOI7kazc8y7FEGmYmdK2Em11g7lfC5+/AloUuVxNpdIBeXk5qchmvTC6juuLsemuvRUREpPXIN0DvhyUK84HXM9YFAfpX7vklLAD9AtjNbdOTMBBehI2F3g5YB0tA97pbV0M4RjrqMbe+Fmvl2xRYHwsQvgfSkfeTa4DeHxtvHQStY7BWwsHAaOAnt+5L7Hr1x1pV74yca5R7rBM5bjQofBqrdFjflflywsD9fpbNjr575L287a7NQHdNHqPu97Z8AvRu2LXz3XGawuZY5ncf+BY4CRiKXb8TsOA6qEDZJmPfILD7zq2fjQWJuwB7Y70Zgvf5VGS/NbDrfb9bN5vwHgQ9MIIA/XvsszYPy7HwFHZNAxdGzvEKlvhvXWAL4ErC+/Q+1ksgqjkD9MWu7AuxFv+9sF4X1xF+Nr4k7A0RCILyJe75Fvd+umMVKUEFzVLssxjV0AB9HezaP+GWf054P/pnOZaSxEn+3oV159s/l2Fu0ZPFcMggqwkUYEg1fwK28OHy0gtyz9ooIiLSXIb4z/ZcvHDBoPq3bB2WdkotmtVlz3cLXY56rA7cAfRwP9+WsN1vsC/6F7ufOxPObnMOFqQuxYLQ5yP7fULYMjwcyyg/EAvWwYL8YNz7X6jbDfd9LAh+jfx7Ao7HgoglwE5YF+jAu1gw9xzWbfcY4FIs0IsG45nJ9Qa644L1HjgUC6oC07DpeG/HAsK9saEAYN2pr8SC9ulYULvArfvYvc+7gIPyfJ8AaxF21/64Aftn8rBuzN2xIHtLqDODz7tYtviXsOt3K3b/M2c7WhHrEr81ViESeBjrZj4Suzf9sBblWe4RtIIvJDnB4QpYxcHmWGURhFPKrYf1ugCbLm8/7LMZeBXrHl6BteCfi332WkIXbCq8jak7rOAp7Fqfh13Tran7exQoBq4hzB8A9tnZDvuMD8CGT2RWmjTEJ+6xo/v5F7InnPyVAnTJy3T4fa3VOvUB0j6cVwIXenX/wHZo95fTp7aa8Xh8u6Qz5xe6PCIiIgCLFi8e5qdSUwtdjlwVpakENixwMbbHgq2oImAlrKVsCGGX6NeBGxOO8z1150EOAp6uwP+517cRH1QswVqeXwbWxIL4oIU4yBj/MRZYZPrQnTef7yPFQKl7fQN1g/PA/7BKg9WxHgC5OBaLPRZjQyLjvjvegbU2b4611AcB+mZYEAtW0bEgYz/fbb+/K38+ukZe/5znvnGGEzZilUHs9LqzsHt6F1ZxsTvxc8dfQt3gPHA7FqCnsNbxHxtQzmsJg3OwzxmE96kaG5qxlGVNJhyLfgz2PpfEbNccbiZ+zP/tWIAO8V3vwa5TZus82H0/D6ss2RqraPqkUaVsBAXokpNnoVN/mAichtUMzgYO3dDmB5WI2iVcgMcKns8hh5Yzt9DlERERAUj7fo2XapIApGX4reJ/6GD3yCbokn0MycnFXiBs9Y7ahDDZ19NZzvEaNn1tb6xFLgjQg27yj7pyxLmP/AL0rQhb3B/Isl3cWN9sdnLPbxIfdAb+iwXoW2GxSk3kXEtJvk6zse7VO+dZrvmR1z0St8pd0GKaJnuL6X1YZUVX7NrEBej/S9j368jrvPMk1XPsoPzPY63SSe7EAvSeWLfwFxtYjny9kLA8l2vyENa1P050WMSuwN/zLFeTUYAu9aqCNXy4w4dt3aJX0jBqIxvjIREVZQzDxg5N3X98neQvIiIiBfVZ9z1fIcwwLLn5kvhZaX7GWuOqsO61SVm8A18kLI8OOTiXcKqvOMG42gHuuTvWvRmyd83+AAsWc826vVrkdVPO7b2ee14f686eZAX33B1YGbsHa7pln5A9w3oV+Qfo0cCuKX4/grLOwsZ4J1mCvZ8hkX0yzU5YvjjyOnOsfq5mJSwPxlDXN0Qzun5tWi5AT6o0iLbgJ12TbO/pR/foR3I2+BahAF2yqoQRaetyFfwDuHoJnL5pfHeXDs0Hb4qNayENo73kmmwRERFpGx4Gjm+C4yS12kWnylo/YZtMy7vnfpFl2RJY1WCBYq4trdEEVvMTt8qPR9gVvi+5B8LLYwF68F7r+/7ZkB4iCwgDs1zvQaAnFixHe0cESdOyBeeBoLzd8zxvU/glYXlwbxbWs3/0/TVFz4OWUN/neQH2OUiaAq9FKECXWNOgc7ElMjkF+6M6B/hTiXXhkhj3jWEksK0Hk0rH18mEKSIiIhInGgTtRm5jiYMgIxpgZWbSzpTPd/5oZUKXxK3y42Mt38VYLqPrctwv6BkQVEDU9z7yHX8eeBw4BOta34fsFR5RY7Gs7FOxsdtfEt7Trkk7RQT3rTUNPVmAVTzUd++juQfaSqLo+j4/QUVJ3BCMbD1Qmur3BFCALjHegQEpS1oRTJv2WhoO2ghmFrJcrdljJ9FlocdEYG6tT3mhyyMiIiJtQrR79ULiE7IlmYu1YvbCuhgn6Ud+LZzfRF6vhSW4i7MJNvXapySPZ476Fus63IP83ieE12ktwnHpcVbP87iBB7EAvQhLkJeU7C+qEzZtWS9s+rGg6/VX7nlNrMIgqUt+EWHW+2xjvVvaF8AG2DRk2awXeZ30GWltBmRZ15ew90jckJReWJAel9ywSYcO5ToWRTqI6fD7lCXv2BLwfbhyCQxXcJ7dwt6cAKzj+VxUOiFxvJCIiIhI1MuEX/j3y7Ld8tj0Vg8QZliHcB7s3bPsGzd3ejavEA7T2ynLdidhreHRqeWyjQ8PxijvSvbM7xdiieBuImxMDN5nN2CHhP2KyF7ebB4hrAQ4j3AcfDanEI5Vvomw+/1L7rmY7In0diSsOElKfFYIQfl3InvFzj7uOd+KpULK9rsQ/R16IvI6mqwyqafKZg0uUQwF6ALAR9BlBlzrWUbJPlgXq302hNM03jy7+8bQD5+zgc/ndrEx6CIiIiI5mI2NcwdLMluSsN25WPfrfak79vdO9zwEODpmv65YN+x8yxTM0jOaumPSA2sRVihMiSyPdo/PHFd9i3vuA1yUcO4h2JzaO2HzWQct5VMJpyu7iPiu7MeRPL1WfRYBY9zrlbEKgWy9Eg7DZjcCa/2+LLLuScJeCBOID3K7Rfb/BfhP/kWuV0PHtd/knnuTnP1/I+BP7vXDLDvtXWu1MXBAzPIewDnu9QvUbZiM9m6IS0A4AOtJkSSotFo+yzYidb0L61bC65Xgu8cLVQXOXlhgE7Ca4+gjMbHK5DKumlyGf28ZB7VQ+URERKT5LEf4/39SI481xx1nQpZtNsDGlfvYWN5DsQAObI7rKyLliZve9nHCMd6nEQaEQ7Cu59HvMyMy9v2c+Pc5DEt+5gPTsbm9PaxFe3ssW7qPNeisHNlvZORctwIHUXcu+/sj628mDII7Y5UPX7p1SwjnEg+MiOz7LHbdwFrjz8CC+WD9IzTMDZFjLMEqQEZigd0w4I9Y636wzULCacmiRkW2eQ2bWzvILL451nMiWH9Ixr7HUf/3z5LINsMz1p0aWXc5dg+C63xwDscGuDuy3Q2EQwe6YJ/P2YT3PzNmmOrW3Ul+1oicM3Ou8uEkv9+oYJvjMpZPj6xbgOULCH7HNsZ6p/hYo+RGGfuugFXgBL+fpVgl00rAEVjPiwWR42dej7Pd8jRWufSHmG3q0Bj0Dm46jKq1mrLegO/BJbNh3I7JY3skomIcA0hznAevjRzPPYUuT1u3zrwnVkx3qsn3D7o0CW/mzG57HlPoUoiIdEDvAb8HJmPjxW/HWpsXYeNeA68R31J3CNaKuRUWkF2cse/f3X75zJf9NhZI3IkFg1PdMYsIW69/wVrRv43s95LbrhtwuHtcA5zs1h+OzQ2+K9YC+yesR0A3wrhkiXtPmQl3H8Va9K/Eurm/m7Hvd1jL96F5vM9Mx7njjHHv82CSW0e/wAL252PW3YsFypdh3Z9fJAzygpbtpcCZ5B/I1udZwmn1TnPL/op9NnJ1FFbRszdwjHvMxcoe3KdZWEVE0nRtrdErWMXV9cC12GctGG6xCPvcvZOxz2ygDKso6wfLfN9fgH3m7ks451PYsAnPHQdsZojEedYVoHdQ06B7F7iasDvUbODQofE1s5KgKE25D8VpKNO0ao2X7lw7Dt/Ld6ycNI365jsVEekoaoD/utdxc6Dn4zks0Mk2TznufOtj3bv3xRJ09XJleQdrjb6R+DHeP2Jdwo8B/hzZ9yPsu94krOt3D5bNtv0CsCLx7/N+rPX7dGy8cdBS/j2WVO1Clg3OvgH2AMrd+1lK3aGSc936g7AgcBvCioRvsK7eF5M8//q12BzqZ2FBem8sQKrAWtF3d+Vs6Gw6aayr8x3Y9dwNm6s+mIO+2p3/XqyBK9u0XVcBz2BB+G6EU8V9hVU2XAvMiNnvS8LPX1KD2fzINpkZ59/GunGfgbWcLyAc1vxtDscG6xmwLxaAH4vdp97YvXwXq0S6kfhs59Ow3hdx7y2bxZGyfZaxbg7J7zcq2ObLhPVvYa3eE4E9seD8B+zzfCnwQcJ+V2IVaacD22Ex9ALgMWAcdk+Dcy/O2PcV7PP+V2xoyFzqicEbOrG9tGFVsHHasrQHcz0+VwuHDguzTnZ0E1i2a00fMuaLrBjD4JTHdN/n+VETYsekSJ7WWvTo0x5eQxO8SONUzuy254b1byYiIi2gExa4zgVq89y3GGvpTpp7vaG6ueM21dzogd5YsFjfvNtJ+86td6vGSRH2PmjMdGjdsQqAzACurVgO67EQl8W8tZuO9QT5O9Z6DXZfu5P/5zmF/W4mzSPfaGpB70B88Crh1DSMx8aQ1AAXvgcXlub/x7/D8zwuBIq8sLuKNJKHF34Off8HPM0n37zUW0FEpJWqoeHBYLZM6o3R1AF/oDEBdnMH52ABaVPMU96QCojWpNkC0gJJ07DKpjTNfC0UoHcQVbDyDLjVsy42eNZ15NCh4ZQXkofJY9kUn9/78NCoCbxa6PK0H371rx17PF6d2W3EXoUtT/u21qLHJnnLJlIRERERkQLRNGsdwHTYI23jl3Zzi/69GIYpOG+UcwH8IsYVuiAiIiIiItI+qAW9HZsJXedbEoTRWLPkfB9O2tASjUgDVZQxDJ8RPjxQeoESa4mIiIiISNNQgN5OVcHg+TaHYZD06fUUHDyk/iyiUo+UZWv0/DQXFbosIiIiIiKS1TFYxvak7O6tigL0NqoSVvLgAN/m8qtOwQvF8PC6sKQS/py2uQ67A2kPLl0MZ29ad5oLaYCKMQwG9sPjsdKJvFHo8oiIiIiISFavFLoA+VCA3sZUQNH6Nrfk6b5lYgcgDScvhm8q4XNgSwAfvvbhsI3g6QIVt90pgjIfUl6a8YUui4iIiIiItC8K0NuYwXCVDyd64PvLrl7FPfDgwU5w1AbwYwsXsd2qOIuBvseBvs8zB0xQgj0REREREWlaCtDbkBmwmQ8nYMG5l2XTOR6UbtB882B2SKkUY4BORUUaey4iIiIiIk1P06y1IT4ciwXm2YJzgD5pGNECReowyg5kdeBQ4MX9L+SZQpdHRERERETaHwXobctwD2J6ti/Lg+HNXZiOZPAanAgU42vsuYiIiIiINA8F6G1Lp3T9recA+Bq+0GR6dIUunTgUeHfkBP5T6PKIiIiIiEj7pAC9jXBjzufnFJ0DHlQ2Z3k6kp03As+jBz5X5dqDQUREREREJF9qZW0DqmDlGXAzsFF927rs7gvTMKUFitbuFaVgz83A9/m2x3z+VejyiIiISLPrApxSzza/AHOAb4HXgIXNXagC6gHsBewIDAJ6AfOAj4FngPuBxQUrXes1GNjbvf47MDePfQ8A1gGWAFc1cbmklVOA3spVwn5puBHo7xb9CPRL2Nz3wfPg/BL4uWVK2P6s1Zeuqy8PNbXQrRf07w0LF3PzqGtZUuiyiYiISLPrCkzMY/uFwPXAWFpPoNofew9XATMaeIxOwInY++ofs34H4GjgG2yWofsbeJ7m1AsoB54Enmjhcw8j/BzdTX4B+hFYwudfaF8Beh/gAuAu4OUCl6XVUoDeSk2H5YErgcPdonnAKZ3gwRqYjP1RBPA9fu0C73twyRC4tMUL3A7417I+acb7Pvt6bixBTRo+WwSv/cRDhS2diIiIFMBc4IeY5b2AvkAR0B04DdgQ2A1It1jp4q2HBT99gasbeIxewH3ALu7nJcB/gQ+xgPw3wJbusQrWc/PURpyvOfTFKidWAc3A0wqsBkwDVgLuKXBZWjUF6K1QFeyehpuAVd2iF304bEP4FMCHnd6FvX041IcS3/5o/i8NN27U8FrSDs2/mh1J8zA+PbzIQP9OKRjYA9Zen4cOvoLh3ml8XLhSioiISAu7Ezg+y/qtgduAgVgwexTwjxYoVzYrYsFpQ3nY+w6C80eAY7DAPNMuwB1Y0HU58DbwfCPO3ZR6YsG5tA7LY58TqYcC9FbkI+i9GK5I2x93gCU+nPs+XFYKtcF2LlHZQ+4hjeRfR0+W8m9SdE/aJuWxEkXc6fts6XlKFNdcPLyULq6IiLQhL2Hjs2dg36uPpvABemMdRjh2+j7gIGBpwrb/ddu+gvUmuBL4bXMXUKQ9U4DeSlTC7xbbH/Q13aJpKTh8CLxbyHJ1CEs5DI8Vcwi7N+dv7Ii6STUb37rUiYiItCUfYIH6dti4Yzf6cBnFbv2K2Dj3n7BZd2bncI61gSHuGD8Cb2Hjk5taChjnXs8D/kxycB54HXgA2B/YGNgcS5wXZ0Us6XEf7H28jV2HfMo3DFgdqAbeBL7LY/9shmLX+X2sK3+cDbDkbZ2wBIHTgJomOn9jDALWda/fAz7JY9+1sYR2S7HP8mdNWjLJm6ZZK7D3oVclTMISV6yJ/bEZ9wNspeC8hXjsnXObeJp9mrUsIiIi0hYFQWYxFnxHDQBuxRL4vgo8DNwLPI0Fl89i49fj7Ay8iAVcD2F5iJ7FxsU/SBiUBXxgauTn6W7ZnTm+j62x7vpgwy1zqTwAOBfrPTCY+OC8BHgcC2qfBCqw9/89Nn49830E5mDlHw7siw33fAOrEHgM+Nrt/5uM/T53j8Aj7jiPJBz7Mqyy5EEsSL0x43iHYEH7u9j9ux8b5z8bS3rWLaH8zWEqVu7jgE2x6/G+K9fDWHb9F4j/TB3n9p2OdTcPtn8Yuz8zsfuyccy+y7l9feDgLOX73G0zKbJsjjtn5nuI3g9x1IJeQNNh+6VwC/aHGx/eSsGRQ+GdAheto/kN1m09l2nmNXZG2pPlCl0AEZF2YrB7/hFYFFm+PjYme0X389vALKA31hq7Epb493msBferyL6/A/6DdR2fg7VUz8O+N24M7ANsBWwCfOH2+RSrIAgC1i+xxp/vc3wfO0deP5njPmBd/JPyIO2DJQXriiXQewO7BmtjreH7Y1O47YX1RIhzCHAs9l1tFhboD8bGme/vXg+DX2fcmeWe13DP32LZ9r+NOXYpcFLGsmjOoWsi6xdgFSaLseD4N1iPg13dozl6NSTZHKtY6I5VFMzErml/YBvsM1WCfQYy9QSecuvfddv2xzLH7wQ8516/0ERl/QybhWo19/PX2DWMux8dnlrQC2AadK+EazyrAR0ALPXg/GrYQsF5QXxBbsE5eHX+cYqIiIjsj2VOBwt6oiZhwfkvWCC9MdYSvCMWPE5w2/UB/pSx7yVYcP44FtjsCozExnjvhQXeKwB/jeyzDnBg5Oc93bJTc3wvG0ReJ3VTz8cAbIqxrlgAuSmwGfY+Nsauw/dYArEp2PuJ82eshXszrMfpFlgy5clu/frY3OGBbd0jcDR2HY6OOfbxWA+FkVjQezphj4P/IwzOp2Bd63fD7uGawFlYS/DmWI+DlnQEVnGzD/YZ2wKrMLjIre/DshUPgQFYcH6Bez4eq6jYCLsWvYF/sWxvkIYahn0WAweSfD86PLWgt7AqGJ62VvOg+9CMFBw2xMYSSWE8hNUS1s/ngeYtioiISPPYofzZTp8uXtBmcn0UL0jVfnztnvnMHd0cumDBY5QHrIwFiHsSZnmvxYLqwBpYAArWyvpmxnGqsTnGD8UCv/Ui67piQQ3Y98YFGfs+igWR29G03auDAHkp+Y0NTzIGa+FdDOzOsmO7nwN+j7XUrgycTDgGPmoR1qMg2hNgLlapsRd2vbYk9678UT52H4Oyve6eO2NzqINVVhxE3fHmNcDFWMb8M7AKgs0i+7eEA6nbyr0UOBvYD+tVsGWWfR8AzslY9jH2Pl/Dgvg/0vaTHrY5CtBbyEvQrRdckLYazBT2S31JCs4bYn+gpVBquZ1OnI3PqmRvSf+fd3KTdfURERFpUbPmLd6yyEtNrX/L1qG2K5Ukj81uKX9i2ZbtOGksuIw2uHyDtU6uDfwvYT8fG/O8OnWHHS3BumR3x1qPn8a6z2eWrakFvWsXN8GxPCxQBBtzn5R47WUsG/yuWMAZF6A/Tnw3/XlYUrSNafiwrTcTyha0SIMF4knJ4CZi974LMIqWC9A/Ib4Luu/KMBhrCU8yMWH5NOyebI31FFCA3sLUxb0FTIftetuYo79g1/zdFAwvgbEKzgvPO41FpDmAmHFDQe64NHyOxyEtWzIRERFp5eZjPfG2B67LWLcUG5f9ENYVOdADCygPBv5OOC1Z9Hu5D9zlXu+IjSN+AgsE12qy0i8rCIJ7YS3IjTEAG9cM1lKezbPueSDWNTvT+1n2DXoXZAtGs3k7YfnmkdfPZdn/Z8KKmU0bWIaG+CDLuoXuOemazCd7RcIr7nmzfAsljacW9Gb0PvRaarVTx/lWi1gLXNkTzh7QNDWT0kS8U3jVv5wNKeJ83+Nwz7Wk/7wQbnoZilPscOoDsUk2RERE2oQ1enV95dPFC/oWuhy5Kl6Qqi10GbDs1tfELP8FC8xmYt/vslkFa+3eBhvjvVaO5z6FcMxzV8JEZFdhrb73Y0G0FNkSAAAgAElEQVT8pzkeLxffRF6vgCXzaqj+kdf15fD5IvJ6BepWaIB1Z69PQ+OapK78/dzzwizbBILviC2ZTDjzGsVJuiZfYb0+kgTJ2/q7Y7SGqeQ6DAXozWQ67LEUrsdlj/ShqgiOGmLTa0gr5P2FL/zLOJ3OHA4wejL8/UWosT9fPxe0cCIiIo30XPmONej/Wb6+xLpfN1QpcDOWNTtQDVRhiYEfx6a+2j5m3wXYuO3tsHHqexBmwf6te5yNJTL7VyPKGBXtor8tln09F0XYeO0X3GMBdVvg6wvwopUcrSUY7OKecylPEOy2lZ6xuZYztyTK0qTUxb2JVUHfSrjNs7kZ1wCqPTi/CH6r4LwN6MxOHni1abh92q/BuYiIiEi+BgO3Y8H5V9hQxy3dz78FjsQC4KDBrEvMMcDGrx+DtaaXYEF5MOtPMTZGeNUmKvMjhMHybnnsNxwbO/44cKFbFm3h7bfMHnVFW56/y+O8zSloNe9N/dnMg2n0fmi+4jSp+nrSBO9nNvEVFNmGEzRV5vcOSwF6E5oOo9I2l+BhbtE0YLOhcK7GmrcRPjsBTPsC5iyqb2MRERGRREdjAXQa65p+BdZYszRju9XdczSw8bCu8LtRtxVzBhYAD8PmBcedY0eaxo/YnNhg2bxXy7Jt1CmR13e7548Ih3RuUc/+wVjn2YTjpwstOq/7Jlm2KybMuN+Uww2a06rUHYKQKciLUBlZFp1JICkhXw/qD/6lHgrQm0AVrFwJUzyowGoAFwGn/wBblcD0AhdP8uFZgP5MUp5RERERkdys7Z7nYA04cTbDDYfEgpvAH7Dx7Y9jCeXiPBF5XRR5vSTyuiFTsI2P7HsXlkk+m8OxqdLAss0H86dXEyZ/+wN1u/lHrRzZ/8F8C5uj4gbsMxX7Tg+WST9JKWFiu+Yqf3M4LGH5QMIhF/dHltdgWfMhucfGniQPoY5+Luv7THVoCtAbaToc6VrN93eL/lcLw0rgsh1bzxgayYF/DesA6wI8lS0vpoiIiEj9gsRhfYnPhj0A6wIfiI7ZfowwOLyS+O7vR7vnNPBSZHm0D+AGuRY24mngJvd6W2zKrT1YNm7oBZyPjbEHywx+fMY2l2EZ6VfBxslnvo/ewL+xyolqLKt9U4nOzjO4Afv/TPjeDsGGGWTaBLs/YNO9NSZfQUs7l2V7BvQB7sAqfL6i7ucTwunoDgbWyVg3mPBaxGns57LDUJK4BnoL1upkSeCC8TnzgDOHwvVeODuXtCU++wIsXsqSFz5NHAcmIiIikotbsJbXIuA/WDb4d7DAdgus5bkHNl3WIOqO054DXIC1Zm+HBUZ3ArOw7sW7uAfYGPSPIvt+io0jLwJuBE7DguxsrcCZTsCyqe+LzUX/GPA51u37e2x+8G0IW8UXYHOeZ/ZBfAa4FDjDra9y7+MrrAv/4e5YPnAmlp2+qfyCjSPvC5yHteJ/AIzM4xhnYpUUGwE3YPO0P4K1Bm+GBarFWJb5g2hbQ1p7AC8Ct2LJAX+DzTawGvY+jmHZ7Pk3YtehH/AGVrnyNZYbYW9sSMPzxCc9/Br7nPTAKm6OwnoaH9p0b0k6JB9S0+HESphXCX4l+DPgsaqwe5K0Uf7VPONfjf/aX3gP+0cRfSSNtZEmNGDRY1MHLHrMt8ejjxS6PO3dWoseuzO83o9pOI6IiFmO8P//pEYe6wis5TDze4WPje/dEQsYg2XrRvb1sMzo1Qn7L8UCnWj39sCEjG0/bkDZU9i8698nnN/HWu+fwCoYsjkZa5GOO8ZXhF3cM81x25yV5dhT3TZx3xtOcWUMzjWPcEx/cOwJ9ZS9F9aqXJtQ/qlYt/BMB0e2yTdOeMTtFzeVWvB+78yy/yS3zecZy4+LlOlQrAIj8/3MAhvyGcPDppBeGrPfF8DWkXPH/e6clbHP7CzvocNSC3oeKmHDGdZCvpVb9BNw8lD7pZU2zL+B5VjMcID/fsDHwPoFLpKIiIgUxkJsXDHAJ4081q1YAHsAFsQWYXONvwA8hwWP3SLni/bC9LEA/e/AXsAQrPVxAfA+8CjJ84uPAR7AssansKArX2ngaizQ2h7YFFgTazFegLWWP8myreZxrsa6uO+JjanvhV2HN7Bx9pmJ8wJHYF3/KxPWA5yDJTz7JmbdVViX/R1cub/C7kFN5Njv11P2eVgwW47dh7WxQHUW8BTwdsJ+LxDe13yzu08EbiP+ugTvN9s9vQkb/58t4d7D2GfzD9hncy7Wg+GBhPNCWFnyD6xHxACsAuk1t98irBX9WeJ/dya6c26LxaFfY9dSvY8lPy9BtxkwsRKWRlrNKyrrTgkhbZh/FaP8q/H9q6lZqy9Xohb0glALestSC7qIiEiHEm1B13fbVkot6PWotGkx/u6HmThneXDiUKt1kvYixV6u7u7lz376dUoQERERERGRFqMs7gkqYaXpNrXEE1hwXuPDlSkYouC8ffErKMJnL/fjowUtjIiIiIiIdFgK0DP44M2waSve82xMBsAbPmy5IZw2xKaQkPbkG7bCMnxCSgG6iIiIiIgUhrq4R1TB4Bk2dcBwt2g+MO49+FupZW6U9mmEe/7UOylrEhIRERERkbZqNpaYDxTbtFoK0IGZ0HUBlKVtrsNit/hh4IQSmzJA2jcL0P3Y6TlERERERNqDye4hrViHD9DfgZ0XwCQf1nOLvgJGl8B9hSyXtAz/StYGSgB1bxcRERERkYLqsAH6B9C/Gi4H/ujb/HtpDyZ1gbHr2jyA0hF47OtezQOeL2RRRERERESkY+twAboPqSo4qhrGA/3d4ndScOwQeLWQZZMC8DjQvXrIG82SgpZFREREREQ6tA6Vxb0KNp4BL/pwIxacLwTO+AE2VXDe8fhXshawOQAe9xS0MCIiIiIi0uF1iBb0t6BPJzg/DccDRQA+PNQJRg+GzwtcPCmUFKXY8IY5wJMFLo2IiIiIiHRw7TpAd3OaHwpcAqzsFs8ERm+IMnYLpQD4POCdrO7tIiIiIiJSWO22i3sVDJkBzwL/woLzJR5cMA+GlCg47/D8q1kX2MT9+O9ClkVERERERATaYQt6FfRMwzlpOAXo7BY/WQQnDoaPClk2aUU8DsQH4Ae68UyBSyMiIiIiItK+AvQqOCANVwKruUVfpuDUITC5kOWSVsh33ds97veOZWmBSyMiIiIiItI+AvR3Yd1a+FsadnWLaoArU3D+EJhfyLJJ6+NfyQZAif2g7O0iIiIiItI6tOkA/SXo1hvG1MIZQBe3+PkUnDAEqgpZNmnFUr/Off4dq/BcIYsiIiIiIiISaLMBeiXsB1zmw9pu0bfAGUPhDg83ulgk3kHueYpXSm1BSyIiIiIiIuK0uQC9CgbXwuXA7m5RLTCpBs7Z2OazFknkX8Pm+AwCIMVdBS6OiIiIiIjIr9pMgP4W9OkE49JwsheW+2XXnf2tghZO2o40f8ID4ANO5CVOKnB5REREREREnFYfoPuQmgFHAP/f3p2HOVLWCRz/VvcczDAwgJwjDKc6AsMK4oosCLiKAsrKIZeogAfgMgejCHLooLjDIswpsCgIKsOpgsiluAoLcomiCAhyo5wqt8zZ/e4fb4VUZ5LupDtJJenv53nyJFX1VtUvlUxPfvVes4C109XPBPjiZLjY5uyqVjiHsSx+o3n7BUnid0eSJElS62jpBP0PsN29sADYNl21FDi9C2Y5Ortqtoi9SRgPLKeX7+UdjiRJkiRltWSCfj+s1wP/DRwMsUFygKu64QtbwMP5Rqe21cWn0zrznyVH80zO0UiSJElSHy2VoN8HowJM74GTgHHp6ge64Ogt4Po8Y1N7C3PYhMBO6eJ5uQYjtaAE3rbxomsfyTuO4eSxMbtvmncMkiSptbRMgn4P7N4L84DN0lUvAad0wYItYtN2afASDgUSAs/zEtfkHY7UagKMojhtpSRJknKQe4J+P7xlOcxPitOm9QIXdMOJm2MzZA1dmEkXCYcAkHBhMtMbPhIASXIHIXwMGJl3KJIkScoxQb8PxvXCzB6YksSaG4Dbu2D6FnBHXnGpA63OrsD6APTw3XyDkVrH4yvtNn+T16/dJCSMyTuWYeJzeQcw3Gy8+NoFEN4DQOB1kuTZnEMaNpKQzH90zG635B2HJLWbpifohWnTeuEUYL109TMBjp8M33PaNDXAoenzHckM7ss1EqnFPDp29+l5xzBcbLLouscCYVbecQwnIbBPQrJecUWOwQw7vVfmHYEktaOuoex8GXTXUv4++NC98DviIF3rEfuWn9EFb90KLjA5V72FOawHfDRdPDfPWCQNc4EleYcgSZJaW0016AGSP8K+wBHAjgmMuBfuB76fwFmV5ia/DzbvgTN6i/3MAa7ogi85bZoaKuHzxC4U/6CHhXmHI2kY6wqLvQ3dXAnJkjfu/SfJy/ibo3FCmAislXcYktTuqk7Q74Kx98LlCexO/N+uMD/55sB/BzjiPtg1m3A/CGsuhZN74XNJeq4AdycwYzLcWN+3IvUVZjKKhMPTxfOTGSzKNSBJUpOFvwIbxZe9tzw2Zo8P5xpOB9tk0U8nBrqfyDsOSWp3VSfoo+GbxOQc0uS85PXGvXD1XTB5DCS9MGUpnAislm5/BjhxcmzK3jvkyKWBrMYBxLv5y4EFOUcjSZIkSf2qKkG/HzbsgSPeqDav7G2jYE4vfJDifOaLgNldcGqlJvBSQyQUBr/6cTKNJ3ONRZIkSZIGUFWC3gt7A10DJOcAJPCf6csQ4JJuOG4LTI7UXGEOOwNbA5DwrVyDkSRJkqQqVJWgB3hLjce9sQuO3QLuHERM0tB1cWT66u5kKjfnGoskSZIkVaHaBP3VamrP03FSH9sKdhlCTNKQhHlMJLb6gMDcfKORJEmSpOpUOw/6DdUUSuLjh4MPR6qLKcSbT8/yEpfkHYwkSZIkVaOqBH0y/DKB+xL6ncE1AEt74ez6hCbVLpzJOOAzcYFzk5kszTciSZIkSapOVQl6Oi3aoQFer5ChFwZ4P+Zf4LG6RSfVajlHEKf2W8Rop1aTJEmS1D6qbeLOlvAbYPsuyg649WQC+06G+fULTapNmM0Y4AtxgXOSI3k+34gkSZIkqXpVDRJXMBnuAd57H2zeC+8FRidwz/3wf/tBT2NClKrUzWHAusBSejk973AkSZIkqRY1JegFW8D9xIfUEsJMRpFwbDpKwneTGTxVj+OutP0WrHH64YzaapMbkxHd3oRqtBDemXcIkiRJUl4GlaBLLWc1PkFgA2A5XZxWr8Ou+eGjGLn1hgDvIPQ3RqIkSSroDWHtiYuv3iTvODpd6Bm1+C8r7/p03nFIqh8TdLW9MJMRJHw5XVyYTKnfQIUjVlu3XoeSJGnYSJKuOd2BOXnH0fG6lt8C7Jh3GJLqxwRd7W8N9iewKdBLYFY9Dx1e6SW5L10YHx5gg+SP9Ty+KktC1+/yjkGSJElqJhN0tbUwky4CxwOQcHkyjQfreoKneuGS9FyBKx8/Y/cv97+DJEmSJA2OCbra22rsA2wOBHr5r7zDkSRpOBqz0qJnFy1aeV9INgPo7e16PukKr+UdV6frTXr+nncMkurLBF1tK+17/o108fJkOvfkGpAkScPUfcl+S4Ef5R2HJLW7rrwDkAZtDT4LvAVYRg8n5B2OJEmSJA2FCbraUvgmKxP4arr47WQGD+cakCRJkiQNkQm62tNovgCsA7xK4Ot5hyNJkiRJQ2WCrrYTzmZtAl9MF89IpvNcrgFJkiRJUh0MeZC4jb9wzWdIkl3rEYxqk4Rk/qNn7HZL3nE03VJOBFYBnmMxs/MOR5IkSZLqYcgJekiSbRL4WD2CUY2S3ivzDqHZwnw2JXBEXOBrybG8mnNIkiRJklQXTrOmdjMLGEnCw6zEd/IORpIkSZLqZcgJeleSPBkCv61HMBpImAislXcUeQnz2IWQttbo5fjkcJblHJIkSZIk1c2QE/RHv7nbqcCpdYhFA9jk2J9ODD3dT+QdRx7COYxkMWcCkHAjU/kh03MOSpIkSZLqyFHc1R6WMB14O7CMwJQkIeQdkiRJkiTVkwl6G0l6klXzjiEPYTZvJvAVABLmJ9O4N+eQJEmSJKnuTNDbSOhJkj7LvV2v5RVLU43gDGAc8BTwtZyjkSRJkqSGMEFvY0lX0pN3DI2WDgy3f7r4pWQqr+QakCRJkiQ1iAm6WlY4h5HAWenir5JpXJRnPJIkSZLUSCboal2LOAaYBCyjhyl5hyNJkiRJjWSCrpYUFjCZJB0YDuYlM7gv14AkSZIkqcFM0NVywkxG0Mv5wGjgEZYyM+eQJEmSJKnhTNDVelbny8A7gV4SDk2O4Z95hyRJkiRJjWaCrpYSFjAZODFdXJBM5eY845EkSZKkZjFBV8sI5zCSwAXAKOAhlnJCziFJkiRJUtOYoLeRkHR39ue1hC8T2AboBQ6zabskSZKk4aSzE74OkyRhlbxjaJQwh3cQ3qgxn5dM45ZcA5IkSZKkJjNBb2chvJx3CPUQvsnKdHExhabtPTZtlyRJkjT8mKArf6M4G5gELCPhk8kMFuUdkiRJkiQ1mwm6chXm8QngEwAknJRM5fZ8I5IkSZKkfJigKzdhAZOAs9PF65nCaXnGI0mSJEl5MkFXLsL5rEQvlwArA88wik8lCSHvuCRJkiQpLyboyscrzAH+BegBPp4cyfM5RyRJkiRJuTJBV9OFuXwMOCIu8I1kGr/KNyJJkiRJyp8JupoqzGUrEi5IF29iAl/LMx5JkiRJahUm6GqaMJ+1SLgKGAs8TRcHJfvRk3dckiRJktQKTNDbSE93z8i8YxisMJNRBH4IbAgsIbB3MoWn845LkiRJklqFCXob6e4dMTa73JO0Ue3zaswH3gtA4HPJdO7INyBJkiRJai0j8g5Ag9fd0/ta3jFUI8zl8yQcDkDCGck0vp9zSJIkSZLUckzQ1VBhHrsAc9LF61mXY/OMR5IkSZJalU3c1TBhAZOAS4FRwJ9ZiQMcFE6SJEmSyrMGXQ0R5rM+vdwArAW8TDcfSQ7n5bzjkqTcBNbNLm6y+NpT8wpluAiBHfKOQZKkWpigq+7COYxnMdcC6wOv08XeyVH8Oe+4JClXSbImIbyxGIJdfiRJUl82cVddhXMYyyJ+DEwGeggcmEzhl3nHJUmSJEmtzhp01U24jG6e5WIS3gdAwpRkGlflHJYktYSkiztDD58qrmBpjuEMPyFpi5lPJEnDmwm66ucZFgB7pkvfSKZydp7hSFIreWTUbt8Dvpd3HJIkqXXZxF11EebzDeDIdPHsZBon5hmPJEmSJLUbE/R2kvSslHcI5YR5nELgeAASrmI9puQckiRJkiS1HRP0dhIY3WdxZFfu/RfDXL4OnBAXuI4X+JhznUuSJElS7eyD3saSZPmiPM8f5vE1SJuyB66ji72SmQ56JEmSJEmDYQ26BiXMYyZwUrp4PV3slUxlSY4hSZIkSVJbswZdNQtzORn4Srp4PauyV3KoybkkSZIkDYUJuqoWAgnzOR2YAUDCz1iFvZJDWZxvZJIkSZLU/kzQVZUwkxEs4Dzgk+mqa1nOvibnkiRJklQf9kHXgMI5jGV1riC8kZxfxIvslcwg10HqJEmSJKmTWIOufoWzWJ3FXAXsEFcwn2lMTxJCvpFJkiRJUmexBl0VhTmsxzJuopCcJ5yUTGeaybkkSZIk1Z816CorLGAyvVwFbAT0AJ9PpvLtfKOSJEmSpM5lgt5GAsnKTTnPfD5CLwuBVYAlJBycTOWHzTi3JEmSJA1XNnFvI0nS94ZKV1d33QdpC/M5hsAVxOT8OXrZxeRckiRJkhrPGvQ21ts7cmm9jhXmM5pe/ofAIemqPwB7JkfzZL3OIUmSJEmqzARdhLNZm6X8iOSNweCupJtPJP/JazmHJkmSJEnDhk3ch7kwl3exlN9QGKkdTuUF9jE5lyRJkqTmsgZ9GAtzOYqE04HRwGICn02mc2HecUmSJEnScGSCPgyF/2YVxnAegY+lqx6il/2So/l9roFJkiRJ0jBmgj7MhHlsCVxOYBIQ+5v3cGhyNC/lG5kkSZIkDW8m6MNImM8hBM4ExgLLCBzLVOYmCSHv2CSt4Ehg1X62vwK8BPwDuD1dbmXHps8/B+7OrN8X2BR4BBo+peNoYHr6+qfA/Q0+Xz1kY74duKmKfdYCDktf35Tu10yF7+7dxM9bkiRVyQR9GAizWYNuziawX7rqKWC/ZDq3vvGzT1KrOQ6YWGXZZcBFwAzghYZFNDSnps+v0DdBPwTYA7iG+iXoE4DZwJegz1SRK2Xi+AvtkaBnYz6V6hL0dTP7fJnmJ+iF7+7ZmKBLklQTE/QOF+azK4HziT9YAa4h4dBkKn/LMy5JVXsdeLbM+pWBNYCR6eNTwLbAdjCsZ2HYhpjEjiMm6JIkSW3DBL2N9AZWTaosG85hLIs5jcDngQT4JzAjmca3GxehpAb4FfDhfrZPBr4DvBvYAjiJYnPydnAq8D3gmTodbz1icl7O6/BGS6I76nQ+rejzxK5Uj+QdiCRJ7cYEvY10JUkSQrG7+KOPvli2liwsYFsW8wN4YyC421jOJ5MZPNyUQCU10x+B3YjJ0OrEJuPHAz05xlSLW5p4rmXA5U0833B1Td4BSJLUrkzQ28i/jHpw/NjkdRb3juaPS98Cl+/X5wd4mM0YRnAivXyJ+NkuI+FrvMCpyUyW5xO1pCZ4EbgSOBRYG1gfeKJC2Y2BrdLtlaZWXDctsyrwPHAXsfa5GhsQbw6OJt48qBRHrSYCmxGb9T9F7Me+uE7HLjWC2FR+ArAceBy4t8ZjFK7hWGI/+LuhJQfkXJ/YCmMs8Ddq+6wTYHtgPPG79HQjAizRDbyD+D3rIX42f6zxGGunx1iZOBbB74De+oUoSZI6WpjPTmEuvw7zCIXHq3PGhjCX08L8OMpzmMPOYR4PZsrcFxawbd6xt6lZxB/SYcMpl4eNv3ht2PiL14aNvnDNrLwD07DyBPF7eHWV5U9PywdiU/eCm9N1RwJHEGuRC+VuLDnGNsAviMlKyDwWAWcSE7FKJhFrTrP79hJvHKyTWXdkyX5XD/A+d0rjDCWPl4CZxP73pLGVlik8ZpUpc1CZc41Oj/n3Msd4BDi4QoyFvxkL0/f6I2Jin93/MeKI9bXKxlzt36DJmX2Oq1BmZ+BWVnyfi4BziCPBl5qYKbcOcG1meRmxaTsUv7tnZfY9rsy5+nvsUXLukcAJxJsIpWUfozhqfanCea8G1iQOplj62fyF8t8HSZKazhr0Fhfm8TkCZ9NFn8nQVu5aBHAM8JEwj98QfzgmwFICp/IS30hmsjSPmCXlYvP0OVC+JnNrYg179u/+Y5nXexCbf48hJjB/JNZObkqsCf488F7gfbDCIJPvJI7WvQYxKb8DeI6Y8P8HsMng3hJHAvPTmJcQRyN/OT3fm4GvAlsCH0vP+yixJnjddP8n0/dSzcj2K6fvYft0+VlibfIo4N/S9/ADYl//KRWOMZ54Q+QtxHE//kzsdrBR+rgM2JPqb7o0yuHE5LmLeH3uIH6mWxBj/xzwAWBXqNg16qvErhUFI4jvt5LFxJYelbxEvAHQTfwO/z2zbSzwM2CHdPl54E7iZ/Me4rU9L339Ocq3VBgP/JJ48+L1NNbxxBYl6wMXYhcISVILMEFvYWEebyFwJgkJgT7jw72RrQcmUehrDrfSw+eSGdzX3Egl5Wwr4P3p67sonwh9hpioHkNMvrchNu2FmHxeTEzO7yYmvNkBvj5ATFy2JA7otntm2wjgAmJy/izwkTQGiMnWCcDJg3hPmwNz0+P/GjgA+Gu6bRTwTWAqsA+x9nMh8WbCHhQT4B3pO81af84nJueBODXZGfBG16DViQPx7QMcRZye7ewyx9gDWAp8kXhjYVm6fp80vtHE6zHYBH0S8bMZSH/T8/0bsTVEFzHJPYC+N2oOICa7GxNbArwLyt7sPZx4M+JkYvL978QEuJK56aOSIynWuB9P30H8vkVMzgPwdeAbmZjGp/sdRPyO/4k4xV6pHYhN4k8gtjYp7P9h4FLiTYATMUGXJOXMBL21HU1S3Wd03T//7YapLx73y+Wh+8MbfbHfEZ81gNfuvWG7ZS/EPKBr9Mo5RyMxkpggllqTWIv8XuALFJt6V2oGnRCnYisM4HVXZttJwCrExP5DxBrKrBuINegLibWm21GcW3sfYuIOsSVP9rg9wNeINwA+VSGuSr5CTMSfJ9Y6Z2vBlxLnfN+FWCP6mTS2wZpMsfn5HOC/S7a/COxPvFHwbmLt8QXE5uClZhKT+6wfEW9yHA786xDi/Gj6GIqvE2+cPEv8LEtbF1xC/G3wA+KNn48Tb16Ueo74XSn0V//1EGLaE1iQvr6Q4hzuAG+l+N05m3jts14mfu/eTOwOcRLwbcpPNTgL+K+SdVcD/0P8PhXGDKi2D74kSXVngt7KEj5CIAADzq7266Vbf6AndH+g2mnYVNkqW34g7xCkrF2prok2xMTwigrbXgCuK7N+BMXk9DJWTM4LLgbmEW8M7E8xQd8zfX4A+N8K+86mtgR9NDH5g1hjX+799xBvTGxKrNEeio8S/84up29yWHq+U4CfEvtf7wRcX6bc9yvsfwcxQe8i1vq+PIR4B2sNYtwQk91K36uFxBsNmxJr7Msl6FdQn0T23cTvVjexBv7TJdv/g3jNeql886lQs74TsBrx38yPy5T7QYX9f5N5PR4TdElSjkzQW1lgHapIzgHW6uqva5/aQEJMSho1KrU611Ji7eV84oBsldxD+ZGqt6Q4b/hiik3ly3mamKC/K7Ou8Pq2Ac79Mv0PMpe1WaZsfzWzN6SPoSrUat/Liv3rs24kXsMu4vsuTdBfJY4wX85LmdeDTdBPJTa/H8hk4jUvtS0xdlhxgMCsQEyWN6XvZ51VaQaAWmxKvOExltjX/WOs2Jy+cP6HKXZxKOfmdN9R6T6lCTTlRrgAACAASURBVHoP8FCFfV/NvB4PPDNQ4BLxe7sYZwCQVGcm6K0s8BQJG1JFkv5Uz9pNCEgNsh2xWe0xNHdOaLWHO4h9Y0v9k5jkPUSxr3N//lFhffaPx7T0MZDsCN/rpM/PDbDPk8TEsRrrZF4/W+U+Q1F4P5WS64LXiIn2GsQbFaX6S7pbYdDObMz9JbtQvBZvoliDnVXp+1St8cRa+LWIN0XKNbeHYswDxbuU2PpjfcqPQP8a1U1zN3LgIhIQx/E4HZhOsUWRJA2ZCXqLCrPZjC6Wlg4OV1bCstNWn7PBN0+eM9APZFVnFitOTbQa9W+Suh6xP+SnqLKlhIalvxOnPhuqJRXWZxOSO+hbm1hJthn8qPR5oFqkSucvZ0zmdTU3H4aqcA2W91sqKrzPnn62tapRmdcDvdfC+1tO+fdVy+dZLo4fE2/YLCXWnFcaLX4wn001ZaV6eDdxusJLiDfZB7rJJ0kDMkFvMeFs1mYpXwU+S0h/mAzUCz1wbjJ9wNortY6ViH1nTyb2u5Ty9Erm9VeJ01nV4lniNFerDVBu1RqOme2zU26AvHorND8f6FwjKTa9b8e/udnruhb9j3BfaFkx1JryUgnwXeJ0fYE4f/lN/ZQvfDblWixkdVGMuR0/G7WvBDgwfZxIHHOj3ACSklSVroGLqBnCmYwL8ziJpTxCHC15JPAkgW+RsLRMw7zCmltYiS82MVQNzV7EKa5OweRcreFPFP+eDDTC+LuI059la7gfyGyrZByxv3G1HsjEtFU/5fZJy17H0BL5P6bP29C3lrnUNhRrdJ8Ywvnycm/mdX+fFxS/C4/WOYb/Io4MD3G6tIFG3y/EvAVxrvpKtiDe/AR4fLDBSUN0CvFv0j55ByKpfZmg5yzMZkyYxzSW8xBxOqJxxBqDY+lhUjKdKfSwDQk/IunT1PMJAjN4kX9PDnfE2TYwGfgVsVnnZjnHImX9Hfht+vozxIGPytmQOEbCfcA5mfWFwbi2pXIyfSC13ZB6IRPTgVRuQ7QX8DZiclZupMz+ku2swkBz44jzaVdyRPq8hPIj4re6RygOlPZpKn8m76CYoF9Vx/MfSbH70ELiVHoDKVzn0fQ/E0Dhs+lh8PPMS/UwEfgh8f/8rXOORVIbMkHPSZjNmDCfqXTzMDAXWBdYSsIZdLNZMo3TkhmxiVQyg/uSaezLIt5E4F/oZdNkGhsn05mTzGyJgYdU2ZrAmcDvgJ3zDUWq6PT0eSJxfu/RJdvHEqcPG0Ws2Z6f2XYJ8BdiEr2QvoPOQUyeK02P1Z856fO7iHNbl9qNYjJ9dmZ9tg/926s813UUa2pnU752+TCKCeL3yWeatHoofNbbAt9kxd8BE4jTniXEmx4X1um8H6A41/kvidezmkHb/o84NgLE79F7ypQ5kDiFHcTY+xuJX2qWnYG7iH+fBuqiIUlvsA96k4XzWYlX+RyBYwlMSFcvJ/7gOzmZWrlPYHIsr1J+6hy1nhHE2qKvMXDfXClvlwIfBA4lDti1DXHO6KeJNeefBDZIy84i/ugseJVY8/5T4pRt9wDnEpuAb5luS4i14mvUENPFxBryfYnjNbwP+Alx0LjtiXOxJ2ksszP7ZZtkX0Zsbno9/U9P1ktM8m4hNpW/BbgIuJN4U2I34vWB2Bz+6BreR6v5DnGe8H2I72MX4uf/D2L3hUOIf7OWE2vZ6zXo1eUUa+yXA9cQbwRVarFxC3F0bIjfv9uI35//I94UupXY3eCDwO5puQeAo+oUr1QPXcTWHQcQm78voDVmdJAkhXMYG+YzNczjr2EeIX0sC3M5P8xhk7zjUx+ziDU72Ue18zcDfIjYDLj0GAM9dqhP+OoQTxC/F0NtrntzepyB+vp2EWuqC9NRlT5eB75E5ebm7yPWpJfu9wqwNzFxD8QbV1lXU/l9jiTWpC+rENNPiNOAlfpuSblb0/XjM+vKNWXfnFhbW+5cy9PjjiuzX+FvRn/90vfIHGtiP+VKZWOutiXC5Mw+pTNSQLyBeCqxqX659/ogsGOZ/SZmyuzRz/kL392zMutq/XtY+n14C/DrCmWXE28olRuI8Li0zEtlthVkP5tqpwKUdqD27/X9xN8IklSRUzs1WJjNGnTzn8AUinOzLgcW0sMpyYyKU8soP4OdZm0z4Axgz0Ged0ecB11FexBrF59haN+LXYjNK5+k2FS4P2sSayT/hZiMLgL+QEyGy81TnTWKWOu9Tbrvw8TazmeItbbjid09HsnsswNxysH+3udE4r+rtxAHAvsLsVn6byuUT4D3pnGENI6riQn/R9Myd1B+FPMkjWmXNK5FabxXEFsUlDMZmES8iXFNhTLrUbwJd01athrZmB+gOKBdf8YTrzdp+QcqlFuP+D0rDLD2NDEJ/hXlm5+PpZiY30L8zMopfHcfIX7eEFtm1KLS92E74P3EpvhLiZ/tVVQekX4S8fNZBlxZoUz2s/k57dt9Qc21A/EG6GBcT2wh8mD9wpEk9SvM5s1hHmeEebySqTFfGuZxQZjtIGEtrtYa9PHEfp2VaqOsQZckqbMMpgY9+1hC/O1gNzhJfdgHvc7CHN5OF18EDqY4gvDrBM5lBLOTo9pyah6V10Xsr3kKsQZGkiSpGqOALxAHnzweOI84HoakYc4EvQ5CIGE+HyRhOoFdKXYdeAE4k4QFyTRHle0wOxBHsnYKFUmSNFhrAt8mjs8xA7gx12gk5c4EfQjCOYxlCZ9gPtOAt7/RYy/hLwTmspjvpCOvq3NMJA6udACO4SBJkupja+L4D5cBx1B5XAVJHc4EfRDCt9iQHo5gMZ+l7wjCd5Iwl9H8MDmcZXnFp4ZYiTigy7HAmJxjkSRJnWk/4CPE6SNPJc6sIWkYMUGvUggkzGNXEo6khw/Tdz7XH9PL3ORobssxRDXWXcD6DT7HBHDKPUmS2sCEBh57DHAC8ElixcAllJ9ZQVIHsonuAMJZrM5SDiPhcOIUPwUvAOcCZybTbIbUYcpNsyZJkpSH24GpwG/yDkRS41mDXkGYx/YEPssy9ifJNGkO3EUXZ7Oci5MZLMoxREmSJHW+7YhJ+nRgQc6xSGowE/SMsIAJBD5B4BBgUqZ9wWICl9DF2ck07swtQEmSJA03zwAnAhfkHIekJhj2CXo4h5EsZnfgUHrZHRiZ2fwAcB7dnJ8cxT/yiVAtYinFee0b5SvE75wkSWptk4CvNfgcy4mDxX0dB4uTho1hm6CHBUyil0NZxCEkrJ3Z9BqBH9LNuckUfp1bgGo12wEnAXs18By/Am5p4PElSVJ97NDg418BfAl4uMHnkdRihlWCHs5kHMs5gITD6OU9QHGYvITbgG/TzQ+T//QupVbwKLA3sDMwD9gq12gkSVInup/Y1/yGvAORlI+OT9DT6dF2BA5lOfsC4zITVTxD4Pt0c0EyxabFqsqNwDuBzwEnA2vmGo0kSeoE/yB2dfs2sWm7pGGqYxP0MJ/NgY8zn4NJmJjZtAy4Fjiflbg2OZxl+USoNrYcOAu4iJikf54O/rckSZIaZjkxKf8q8PecY5HUAjoqqQgLmEAP+9PFwQS2Kdn8AAkXMJLzkyN5PpcA1WleAqYB5wBnAB/KNxxJktRGfkH8HXF/3oFIah1tn6CHMxnHMvYm4eP08u8kdGeasD9H4GK6WZhM4a4cw1Rnux/YDfgIcbTVzfINR5IktbCHiQPAXZF3IJJaT1sm6GEmI1idXYGPs5yPkjA2s/k14EpgIetxQ7IfPflEqWHop8DPgCnE+UpXyzccSZLUQl4DTgHmEKdvlaQVtFWCHubybhI+TmB/6DM1Wg+Bn9PFQrr5iaOwK0dLic3dFwLfAA4BuvIMSJIk5aoXuIB48/6ZfEOR1OpaPkEPc3g7XRxIwoGEtOlwYWq0wF0kXEjgkmQ6z+UXpbSCZ4FPA98iTsu2Y77hSJKkHNwOTAV+k3cgktpDSyboYT7rEzgAOAjYOq58Y/NjwIV0cZFTo6kN3A3sBBwAnAp9ZhSQJEmd6S/AscAlZH/FStIAWiZBD7NZg272BQ4isCPZZsGB5+niMnq4iOncniT+oVNbCcDFxLERvkT8D3tMrhFJkqRGWEQcMPZUsMulpNoNKkEPMxnF6nwS2B94K/AKcAMJZyZTeaTq48xmDN38B7Gm/IPAqMzmV0m4gsDFTMgM9nb0YCKWWsIi4rzp5xP/4z4w33AkSVIdXQYcAzyZdyCS2lfNCXqYy9vo4ioCbyUhEEjS5y0JTA3zOC6ZxukV9z+HkSzl/fRyEPBRYFxm8xISriNwMT38NJnBokG8J6nVPUm8KXUWMJ9CNw5JktSO7gZmADfmHIekDlBTgh6+ycp0cR29bEwChHS4tsJzQheBb4b5PJNMZeEb+wUSvsX29HIQi/kYsFbmsL3ATQQWMoofJ5/nxaG+KalN3AJsSxzp/ZR8Q5EkSTX6O3A8cB7x96wkDVkycJGiMI8vAf89UDHgGV5kQ97E2+nlQGJt4YYl5X4LXEQXlyRTeLqWOKQGmwUcV7JuNeDlBp5zPDCS+J+9JElqbWsCy4GX8g5EUmeprYl74JPEAdr6S+wTYAKr8xC9bFSy7SHgIgIXJ9N5sKZzS52tkcm/JEmqL2+oS2qIqhP0MJMuEiZRfa37Runz0wQuAy5KpjsHpCRJkiRJ5VSdoCcz6Q1zWU5Cd1U7BG6jmxNZh5veGIFdkiRJkiSVVVsT94SbgX+nmlr0Xj6bTOe+wYUlSZIkSdLw0lVj+bMYKDkPANyczDA5lyRJkiSpWrUl6FO5EvjJAEd8nR6OHEJMkiRJkiQNOzUl6ElCIGF/YB5xaom+Ar8HdrD2XJIkSZKk2tQ0D3pWWMAEetmHhLcSeJmEG5jC/yVJ2shdal95zIMuSZIkSZJKzCKOppB9jM81IkmSJEkdr9ZB4iRJkiRJUgOYoEuSJEmS1AJqmwe9r52AgzLL04FFQwtH/dgMOCaz/DXgqZxikRphLjAmfX09cEWOsQwHxxD/rgD8EfhWjrEMBwcR/98EeAH4co6xDAelv1EOzyuQYcLfKM21BrE7XsF5wJ05xTJc+BtFbeFI7KPbTDvQ93pPzjecjmYf9Hy8RPF6zxqgrIbuZorX++qcYxkOzqJ4vZ/IOZbhoPQ3ihrL3yjNNZG+1/ug/ourDvyNoqaxibskSZIkSS3ABF2SJEmSpBZggi5JkiRJaiebA2cD7wGSnGOpKxN0SZIkSVI7uR9YAtwKPAScBGySa0R1YoIuSZIkSWo3JwBPApsSZ494GLgJ+AxtPMCzCbokSZIkqd38Ezgxs5wA7wW+AzwDXAzsDnQ3P7TBM0GXJEmSJLWjhcDdZdaPAQ4ArgH+CswGtmpiXINmgi5JkiRJake9wKkDlFkXOBr4A3BP+npCg+MaNBN0SZIkSVK7+hGx/3k1JhNr058k1q4fRKxtbxkm6JIkSZKkdtUDnFXjPt3E/ukLif3VzyP2X899yjYTdEmSJElSO7sIWD7IfccDhxFHgH+UOCL8ZnWKq2Ym6JIkSZKkdvYccEMdjrMRcU71h4hzrB8OrFGH41bNBF2SJEmS1O6uqvPx3gP8D/A0cBnwH8DIOp9jBSbokiRJkqR2d32Djjsa+BhwJXHKtvnAOxt0LhN0SZIkSVLbexx4pMHnWBuYAtwF3AccC7y5nicwQZckSZIkdYLfNvFcmxPnYH+S2P/9YGDcUA9qgi5JkiRJ6gTNTNALuoD3Az8gTtl2fro8qFzbBF2SJEmS1Anuz/n844BDiDXqjwGzgEm1HMAEXZIkSZLUCZ7MO4CMicBxwJ+AO4GjgDcNtJMJuiRJkiSpE7RSgp71LmABsQn8lcDexNHhV5AM4uBzgD2BVYE1M+sfB3oHcTxVZyVgQmb5r8DSnGLpdGsAq5Wsexy/3422EcWbhi8BL+QXyrAwgfh3BeB14NkcYxkO1iT+vwmwnNb9AdEpSn+jPJpXIMOEv1GaawSxZq7geeC1nGIZLjbC3yjtZJO8A6jSEuA84ELgtsLKwSToC4GD6hSUJEmSJEnD2YPEPPt7JuiSJEmSJOXvYfugS5IkSZKUj5eBc4GdgLeOGMQB7gV+AaxP3yHjbyT2q1NjrAZsm1m+HfsbNcpmxL5GWTfi97vRdib2q4PY5//h3CIZHralONbC34Hf5xjLcDCJ+P8mwGLglhxjGQ5Kf6P8Iq9Ahgl/ozTXSsAOmeV7cRyRRtsZf6O0k/fnHUAVAvAIcBLwE2BRPQ56ZHrgwmN8PQ6qinag7/WenG84HW0Wfa+13+/meIni9Z6VcyzDwc0Ur/fVOccyHJxF8Xo/kXMsw0HpbxQ1lr9Rmmsifa+3XU8bz98o7WMNVvwd30qPPwBHA+tWegODqUGXJEmSJKnVTBy4SNM9DVwKnA/8caDCJuiSJEmSpE6wQd4BpBYBVxAHWP8Z0FPtjibokiRJkqROkGcXm0DsQvg94EfEwd9qZoIuSZIkSeoE2+RwzoeB7wM/IA4iOCQm6JIkSZKkTrDtwEXq4gXgcmJt+W31PLAJuiRJkiSp3b0V2LCBx18GXEvsV34VsKQRJzFBlyRJkiS1uw826Li/JdaUXwo836BzvMEEXZIkSZLU7vau47GeAi4k9i2/v47HHZAJuiRJkiSpnW0IvHeIx3gNuJJYW/5LoHeoQQ2GCbokSZIkqZ19CugaxH69xGR8IfBDYpKeKxN0SZIkSVK7GgMcUeM+DxBryi8Cnqx7RENggi5JkiRJalcHA+tVUe4fwMXEfuW/aWhEQ2CCLkmSJElqRysBx/ezfQlxarTvpc/LmhHUUJigS5IkSZLa0VRgozLrbyP2K78YeKGZAQ2VCbokSZIkqd1MAE7ILD9JsV/5A7lEJKkhZgGh5DE+14gkSZIkZV0DvAycT5xibTCjuLcca9AlSZIkSe3k7cSa8n2BRTnHUlcm6JIkSZKkdvKn9NFxOqIZgCRJkiRJ7c4EXZIkSZKkFmCCLkmSJElSCzBBlyRJkiSpBZigS5IkSZLUAkzQJUnScLNm3gG0qdXyDkCSOp0JuiRJGi5GAJ+nQ6fmaYIfAbOAcXkHIkmSho9ZQCh5jM81IknSUH0AeIDi33XVbjHx2j0PHIYVPZIkqQlM0CWpc2wGXEH8W74cE/ShuI147XrS57uA7XKNSJIkdTwTdElqf+OA04Bl9E3MTdAHr5CgFx7LgF7gYmCDHOOSJEkdzARdktpXF7H59fPE5LH077kJ+uCVJuiFx3LgdeAEYExu0UmSpI5kgi5J7Wk74G76NsM2Qa+fSgl64dEL/BXYL68AJandjcg7AEmSpCEaD5wNHJhZN9AAZi80LpyOtcoA2xNgAnApcbT8w4BHGx2UJHUSE3RJktTuXgYupJigB2Ky2J9vNzSizvQJYgJejcuAxxsXiiRJGi5s4i5J7WkU8AXgFWzi3gj9NXFfnj5OB1bLK0BJktR5TNAlqb2tDZxH7BO9DBP0eimXoBdGyP8ZsHl+oUmSpE5lgi5JnWFr4GbKDxqn2mUT9MII+Y8CH8ozKEmS1NlM0CWpcyTEvulP0XfaNdUuO0L+K8TuBKNyjUiSJHU8E3RJ6jxjgK9ggj4ULxKv3XnAWjnHIkmShgkTdEnqXBOBi/IOok19g9htQJIkqWlM0CVJkiQ1XVfeAUiSJEmSJBiRdwCSJEklVgfWBRYDzwGv5xuOJEnNYQ26JElqBaOAGcAfgReA+4lTeL0C3Ajsm1tk9XcP8T02Yt7wwrFreWxHHEDvBWB6A2KSJFXJGnRJkpS3scC1wE7p8lPAE8BKwCbp+p2A7wOH0P6jsI8nthLobuCxazGCOMr96sRrLkmS1DIcJE6SmuurxL+1fwHeW7JtJHAEsDwtc2hzQ2uIJ4jvZXIDjl1I0LOPL6Tnu63MttWJCfq/Ap8D3tGAmCRJkgbNBF2SmuvPxL+1e/ZT5utpmd80JaLGamSCXs6R6flubtL5JEmDZBN3SZKUt7XT57/0U+YSYD/gtQrbNwP2ADYFRgOvAncBVxIHm8vaI32+Ji1/ELA+8Hx6nvvS7W8GDgY2Bv4K/By4s+RY7ybOrf5zYlP9T6TH/DtwA7H/fC3GEfvbb5O+j8eBnxD75DfSZGAScQyAB9J1m6Zx/A54EtgHeA+QAL8FLgaWEsc0+giwC/FGwL3ApVT+rN5BvBnzZuJncwdwBbCozu9JkiR1AGvQJam5biP+rb0MWLnGfUcA/wP0sOLf7gA8Rkw0s55IH4cSE8Rs+aXAR4HdgJdLtvUSm9tnLUy3fYY4yFqg2Bw/EG8QjClz/nI16O8n3iQofQ89wGkMfnDfamrQC//3HVdmv68QWy6UxnUjsCpwfZlt96bbskYTxxEo9zk9Dmw9qHcnSZI6mgm6JDXXfxCT30CcVu1b6bpVqtj3xHS/h4HdidOzTQD2oth0/tKSfZ4g1tYuB74LbEusKb40Lf80sfb3UmBHYEvgO+m2F4mJZkEhQV9CTEq3JA7+th2xJjoA55U5f2mCvjXxZkEPMJs4wvsaxNr+RygmyoMx1AR9URrz/sDbgQMp3rz4M/As8WbHJOJ1fy7ddkzJOX5A8bP6KLAOsXXC6cTP/2/Ez06SJOkNJuiS1HwHUqyBLjyWEZuUnwJsUWafhDjiewC2L7P9A+m2R0rWFxLk0sR9HHHO9ULNd1Y3sdl6oO/0aIUE/WliQp21LvASMel+S5nzZxP0X6XrvlHmfWxMTN5fB9Yrs30gQ03QlxGT76xTKdbub1myrTAo3YWZddul614gdicoNT/dPr+fGCWp4zkPurSiLxN/9GUfL+cakSR1vouJfbk/Q+xz/Qqx+fq7gBOIfaMvIPbzztqeOAXbrWWO+ef0ubSpdcGFJcuvEftaA/ywZFsPsbk8wAZljvVtYvKZ9SzwY+LvrX0qxACxJnlnYi3yaWW2P0achm4MsZVAs91FsV96wZ/S5weJLQeyHk2fs4n4genzQmJ//lJnp8/7DzJGSeoIDhInSZJaxWvE5uDnEX+jbAfsCnyY2AT8U8Ra6Q+l5QPF/uQjgbcRa7ffSqyd3jEtN7LC+R4ts25p+lwuiXwufS73+6k0SS14MH0urYHOKkxt9k/iTeJyCk2/t+rnOI1S7jotS5/LDez3t/Q5O8974T2+jVj7XqqL+HmuTbxh8VyZMpLU8UzQJUlSK1oO3JI+vkIcTf17wAeJNeY3peXGAzOBT9O3z/rrxIHN+msS/uoA569FuYQeYi06wJr97FtoGr8KcOwA5yltRt8M/bUiW9bPtqzV0+cPpI/+rIEJuqRhygRdkiTl6UjiyOiXAv/VT7kLgQOIg6a9m5igdwHXEaf+epbYTP5W4PfEackmEEcHb4bVKqxfJ33+W4XtUJxe7H7idGX9qTR1WasrvMcpxOb6/al0s0OSOp4JuiRJyttWxGS7MFBZJYUa7yXp8/uIyfnL6TFKk+B10+fSac4aYeMK6wtTvD1YYTvEUc0BNiE2GS9XK71Z+vxS7aG1hEeAfyXesCjXZH4EsRvD4xS7GUjSsOMgcZIkKU9XEGtXtyQOBlfJW4m1y4Fi8/aJ6fODlK+hPiB9HjX0MAf0ceKgolmrAXunr3/Sz773EwenW4nYz77UKODnwEMU31O7KdSaH8yKA/1BvH53Egek8/eppGHLP4CSJClPzxL7kAN8HbgR+CQxYd+YOFDcScBtwMrEpvC/T8vfkz5vTRwFvWA0cQ7uKZl1lUZyr5d/Iw5uV0g+NyAmpWsSm+f/qcJ+EEdvn5m+ng8cTrGVY2H/jYm10JfUM+gmugy4D9iIeLNhs8y2DwHz0teziNdDkiRJkpST4ynOQV7pcSEr1oZfmG7rJU7FdiuxGfhy4vzp96Xbt8nsU5iHfCIruifdtkOZbVen2/bIrCvMg35L+ryUWKO/NF3+X+JAdlnl5kEnjbc33fY6cZq4JenyM/RNamsx1HnQzypT/qB029Vltu1Q4XybEK9N4fN8gniDprC8YID3IUkdr3vgIpIkSQ13MzHZfpKYlL5E7HP+J2Lz8KOJtcs9JftdBTxP7Le9avp8NXFU98vSY/wNeIrYRBxiP+j7iQPMLSo53lppuZ+z4rzmaxAHMLshPSfE+c0nE6dHOzeNYWXgd8SE+7gy5yic/3r6jiT/S+Aa4s2FhJi03gX8ADgUeJrBWZl4w+A2ys8XTxr3y8QWDIU+8YX9bibe/Mgak8Z3K7FpetYoYnP90vO9SGxl8BTxRsRo4nv6JXH0+m/V9K4kSZIkScoo1KAflHcgkqT2Zx90SZIkSZJagAm6JEmSJEktwARdkiRJkqQWUDpfpzTcvD99fg24Pc9A2sSWwLrp69uJ161V7Uwc7OnnxIGP2s0kYP309V3EAbNaxQjgHcB6xIGg/k4c+fofeQYl5WRtYBxx0LhW/puo/IwjThcI8e/l7/spK0nSsFaY2uWegQoKKA6GVG56oFbyr8RRkFs9zv6cRfFal5vuKQ/rAGcDr7Di9Fe9xNGfd84pNklqVZMp/q0sNy2dJL3BJu6SOs36xBsJTiNZX9sQb2QdAaxSZnsC7ESc8/mLTYxLkiSpY5igS+ok6wG/ADbLO5AO8ybifNFrp8s3EruHrEKc73gycCaxdqgLOA3Yu+lRSpIktTkTdEmtYE1gk/QxYpDH2AX4HfC2egXVodag9mt9HMXk/HJicv6/xP62y4B7gaOAqWmZBJiN/8dIUiN1Ufx7vmbOsUiSVBf2Qa9No/qgZ/tbT6xx3zWJtbeFPucBWER79JXvT6P6oM+itmvdBTyTll9M7Ifenzszx99+8GFKUsdoVB/08ZnjnlXH40rKkbUbktrZ1sBDwOeJfc6XA8cCP84zqA6zEcWR+38DPDdA+f/NvLY1gyS1h1WBdxJvCE/IORZpWDNBl/o3HrgBeCR9fBcHHxvISRSv12+JTe8aZQKwWvr6TuBdxP7Pw8V0itf6D8DbG3COV4DDmPR9AAAABwpJREFUgZOB71dRPqnwWpJU2YbEKTULf9NPbtB53pY5x8eJ/4eeCzybnv9m4Kn0cTwwskFxSJJUVn9N3McDt2XK/BwY27zQWtJATdxPymz/G7GGuxqDbeK+B/Ez2q3GONvBQE3cp2e2vwT8W5XHrbWJe61uzxx/xwYcX5LazUBN3DcgJsyFMudSXWXAYJq4Z2P5CvDnzPIy+nYXC8BN6XkkSWqKSgn6KsCvM9uvAVZqbmgtqb/E9/jMtmeBLWs47mAT9NGDiLNd9JegTyHOOx6AF4gtB6rVyAR9j8yx/4E1L5IE/Sfo6xO7amUT7WpbHw01QV+SPj8AfJA4cOgI4CPAw5lyC6s8tiRJQ1YuQV+Z2MSrsO0K4lRSqpz4fimz/ilgUo3HHcogceV0coJ+JMXkvJZWCgWNStDHAw9mjn1sHY8tSe2sUoI+gb412HOorWvQUBP0ANxP+RHg1wEeS8v0Ut/BSiVJqqg0QR9LbM5VWH8J1gJmlUt8Z2TWPUH/c5DfTLHvW/bxcskxypXZc4hxtptyCfpnKSbnA7VSuJby1/FFBr7WH68x1rH0bXFyF7Y4kaSCcgn6usSa68L6U/vZf0/K/60uJNCB+P9ouTI39xNLAN7Tz3n3ou/vIUmSGi6boI8FfpVZ9z0cEK5UaeKb7Qf9KHHE7/48Qd8fBrU8DhpCnO2oNEE/jGJy/lcGHiH9HgZ/rY+sIc4xxB+c2e4NG9awvyR1utIEfW1izXVh3UADwh3E4P+eP9FPLL8b4LwjiC21AnGsEysspCYYkXcAUosYA/wE2Dld/icx+ezJK6A2cBSxRrfgZODxAfa5hfjDpNQkYj+8QpnFZco8W2N8neQQ4FCKTR9nEZuT9+d2yk+JthnFGymVrvVfq4xrTeAqijUwzwG7sOIPQklStCbwS4qzbjwGfG2AfZ4FflFm/QiKv1v+SqyRL/V8P8e9aYDzLifOxvJBYnP6TRj4/x5Jkoakv7vO5+UYV6vK1kyXPp4CVh/kce2DvqLsNSl9/IPi3OS1qlcf9M3o23fySRozzZsktbvSZuWljy8P8rhD7YM+pYry382U37n2ECXVynnQpb4uII6KDbFJcen0XerrAeC69PUEYF6OsXS6x4Ar09drUP2PsUbYDrgVeEu6fA+xFv1PuUUkSe0jAGcSpzUD+CqwRQ5x/LOKMtlWVsN9qlmpKUzQpaLZxKT8C5l132HwtcKd7g/ATsRr9mK67hPE6VlUXw8C7yVe60JT/72Ag3OIZR9i88y10uVfEuc7fyqHWCSp3QRiF7GjgNPSdaOJFQTN7npazWCe2TnQ/9aoQCRJKig028r220qAn2W2nZ9DXK0q23T8nZn1h2bWP0Os4a2FTdxXlL0mu2TW75NZP5im7kNp4n4ocVyGwv4X4hSEkjSQbLPy6zPrRxNbHhW2HV/jcYfaxL2/keMLbs2U36DG+CQNgjXoUrQ08zoARwCvpcuHAB9udkBtIHvNLgBuSF+vi03d621Z5vWPgB+nr9cAvt2kGA4gtigp/L9xGrHFxNKKe0iSSi3PvF5CcfpMiE3dm3lTefsBtq8KvCN9/TDwl8aGIwlM0KVKHgNOzCyfg03d+xOAwyn2ZzuY2ARbjXEUxW4FHyEmyo20BXHQxMK0gzOAY4mfuyRp8G4Bzk5fjyK22mtWU/cdgC372f4Z4iw3UBwDRZKkhio027qnzLZu+jbt+n4T42pVAzUdz86L/gzwpiqPO5Z4A2R16nPjsNOauO9QZvthme0vEAfpq8YYarvWCfCbzLnOrfI8UqnsqNXNLCflrXQe9FKrEKenLJT5SpXHTSj+Pa92ALfSEeXvBlYrU+5fgVfTMouJU6xJktRw/SXoEGsOF2fK7dmkuFrVQIlvN3BbpszFzQutj+GQoCfEbgWFMj9tUBy70/fH3MvEGwLVPKY3KCa1JxN0DVcDJegQZ40plFlC4/7vKjfl26PAp4m/ed4FnAK8ntn+xQbFIknSCgZK0CHeyR7KAGidpJrEdwvij4tCub2bE1ofwyFBh1ij8Vqm3CENiCN7LWt9HNeAeNS+TNA1XFWToAP8IFPubmBkg2P5FfBnKv8N7wVObkAMkvrR7OkcpFbz2/T54X7KnEps6lUYLfvTwDcbGVQLe4ziNVtUocx9xJFoD0yXPwNcQ0zam6WaOFvdkxTfw2sVyjwKHEP8TgJ8HLic6ua2rdbiTBy1enbgIpLU8RZR3e+No4GNKU5/tjdwaQPjehr4KPB14JMUp1RbDFwFnE7s4iRJkiRJkuosW4O+MLN+FLAp8QZBd5n9JDWJNeiSJEnS8LYUeCTvICQ5zZokSZIkSS3BBF2SJEmSpBZggi5JkiRJUgswQZckSZIkqQUkeQcgSZIkqSnGAJunr18gTksqqYX8P+k2uD8uVllhAAAAAElFTkSuQmCC;" vertex="1" parent="kvOC6Rou-JyfdBj1kbYH-2">
          <mxGeometry x="37.84" y="30" width="324.32" height="180" as="geometry" />
        </mxCell>
        <mxCell id="kvOC6Rou-JyfdBj1kbYH-3" value="&lt;b&gt;Reference Trajectory&lt;/b&gt; = Future storage level and profit maximization&amp;nbsp;&lt;div&gt;&lt;b&gt;Predicted Outpu&lt;/b&gt;t = Storage level, Solar energy, Demand, Predicted buy price, Predicted Sell price&amp;nbsp;&lt;/div&gt;&lt;div&gt;&lt;b&gt;Measured Output&lt;/b&gt; = Solar energy, Energy used, Buy price, Sell price&lt;/div&gt;&lt;div&gt;&lt;b&gt;Predicted Control Input&lt;/b&gt;: Energy transactions, Storage transactions&lt;/div&gt;&lt;div&gt;&lt;b&gt;Past Control Input&lt;/b&gt;: Previous energy and storage transaction&lt;/div&gt;" style="text;html=1;align=left;verticalAlign=middle;whiteSpace=wrap;rounded=0;" vertex="1" parent="kvOC6Rou-JyfdBj1kbYH-2">
          <mxGeometry x="20" y="220" width="360" height="130" as="geometry" />
        </mxCell>
      </root>
    </mxGraphModel>
  </diagram>
</mxfile>
